<svg width="3676" height="831" viewBox="0 0 3676 831" fill="none" xmlns="http://www.w3.org/2000/svg">
<mask id="mask0_3316_579" style="mask-type:luminance" maskUnits="userSpaceOnUse" x="0" y="0" width="3676" height="831">
<path d="M0 0H3676V831H0V0Z" fill="white"/>
</mask>
<g mask="url(#mask0_3316_579)">
<mask id="mask1_3316_579" style="mask-type:luminance" maskUnits="userSpaceOnUse" x="0" y="0" width="3676" height="831">
<path d="M3676 251.75V830.09H0.460938L0.449219 459.692C3.12109 460.281 34.9492 337.629 40.1094 334.489C45.7109 331.09 51.1289 327.489 56.8281 324.16C63.8906 320.051 72.2891 317.559 79.0898 313.051C86.8789 307.871 89.6094 301.321 94.0391 294.672C95.7383 292.121 98.0898 290.489 99.3516 287.531C101.52 282.5 101.539 278.469 105.77 273.879C111.77 267.36 119.93 263.16 124.691 256.371C127.02 253.051 127.34 249.942 132.84 249.231C137.141 248.672 143.602 250.989 147.789 251.649C157.539 253.199 172.262 256.91 178.559 262.989C184.059 268.289 187.961 272.68 195.629 276.649C204.078 281.02 214 283.512 222.449 287.871C227.301 290.379 377.18 115.239 383.23 115.981C385.172 116.219 387.262 115.602 389.211 115.762C393.75 116.129 392.25 116.571 395.641 117.489C409.172 121.149 420.91 127.84 433.898 132.551C441.211 135.199 447.891 137.762 454.988 140.77C461.422 143.512 465.828 147.879 472.199 150.5C478.762 153.199 487.48 152.102 495.281 152.102C499.961 152.102 504.641 152.141 509.328 152.11C516.949 152.071 522.578 153.489 529.73 154.489C533.262 154.981 537.871 154.41 541.469 154.379C548.449 154.321 551.809 155.18 558.09 156.422C562.551 157.301 567.449 158.352 572.051 159.031C575.352 159.52 579.461 158.512 582.762 158.77C588.211 159.231 592.809 161.039 598.371 161.289C615.609 162.059 633.789 161.781 651.031 161.281C658.379 161.059 664.102 159 670.18 156.071C677.102 152.75 684.43 150.86 691.031 147.059C700.031 141.871 709.77 139.969 719.02 136.031C731.359 130.77 745.898 126.309 759.289 122.012C766.059 119.828 772.961 118.149 779.059 113.578C789.23 105.961 799.031 96.7112 808.301 88.6799C813.031 84.5901 822.691 76.0901 830.039 74.9299C838.73 73.551 844.109 77.6799 850.16 81.2502C856.109 84.7502 862.762 86.7112 868.789 90.012C874.039 92.8791 879.211 93.3596 883.352 97.1292C886.609 100.078 887.352 102.828 889.191 106.239C892.602 112.551 900.398 119.102 906.879 123.84C915.621 130.239 922.91 137.891 936.27 138.539C944.75 138.949 951.57 134.75 959.68 132.84C969.551 130.531 979.109 127.629 988.988 125.34C995.789 123.77 999.891 121.789 1005.71 124.239C1010.6 126.289 1013.99 129.461 1019.19 131.239C1024.93 133.211 1030.76 132.91 1036.48 134.16C1041.19 135.18 1045.41 137.61 1049.9 139.11C1054.31 140.571 1058.55 140.989 1062.52 142.41C1086.13 150.899 1111.79 158.051 1134.42 168.031C1145.18 172.77 1158.15 175.969 1169.57 179.981C1178.52 183.141 1193.02 182.559 1201.73 179.371C1210.02 176.309 1217.27 173.828 1223.99 169.68C1231.64 164.942 1240.92 161.922 1250.16 161.121C1258.7 160.379 1265.91 161.039 1274.15 159.41C1290.83 156.102 1312.22 158.942 1329.31 158.91C1344.81 158.879 1359.69 158.61 1374.96 160.621C1380.3 161.309 1385.59 163.012 1390.81 163.559C1396 164.11 1397.1 164.219 1401.47 165.43C1406.78 166.899 1411.06 168.489 1416.76 167.899C1425.54 167 1430.83 161.102 1437.92 157.641C1443.21 155.059 1448.75 151.899 1454.29 149.711C1462.05 146.649 1469.67 144.192 1477.43 140.981C1482.35 138.949 1487.34 137.922 1492.53 136.301C1496.91 134.93 1500.29 132.129 1504.24 130.641C1520.4 124.59 1538.05 126.809 1554.09 133.699C1569.73 140.422 1587.74 137.301 1604.52 140.762C1609.05 141.699 1613.21 142.852 1617.98 143.078C1621.82 143.27 1626.37 142.25 1630.09 142.922C1633.53 143.531 1636.66 144.781 1640.37 145.52C1645.39 146.52 1650.56 148.27 1655.32 149.809C1664.44 152.762 1672.52 155.422 1680.67 159.469C1687.03 162.621 1691.46 166.789 1697.46 170.239C1702.92 173.379 1710.12 176.469 1716.57 177.102C1720.45 177.469 1726.29 177.52 1730.06 177.141C1737.85 176.371 1740.51 172.289 1746.91 169.301C1753.08 166.41 1754.6 166.031 1759.23 161.672C1761.27 159.77 1764.71 157.461 1767.38 156C1775.98 151.352 1784.67 147.219 1793.15 141.922C1798.01 138.879 1804.1 136.61 1808.72 133.34C1811.18 131.61 1812.62 129.36 1815.17 127.711C1822.27 123.149 1832.5 116.891 1840.98 113.809C1847.42 111.469 1853.67 108.84 1860.07 106.68C1861.47 106.211 1863.9 107.262 1865.48 106.43C1866.88 105.68 1867.64 103.149 1868.97 102.141C1873.08 99.0706 1881.08 95.2698 1885.93 93.1409C1894.41 89.4221 1899.32 81.3284 1911.13 83.9612C1914.48 84.719 1916.62 87.012 1920.11 88.0002C1932.41 91.4885 1947.2 94.7385 1960.11 96.6604C1964.19 97.2502 1975.83 96.3596 1979.16 98.0198C1979.98 98.4299 1982.31 102.039 1982.54 102.239C1984.22 103.602 1987.15 104.578 1989.09 105.5C1997.41 109.399 2005.05 112.891 2012.63 117.571C2020.49 122.442 2030.32 125.18 2038.8 129.379C2051.21 135.5 2063.86 142.762 2075.42 149.719C2085.17 155.571 2086.99 163.809 2096.22 169.692C2107.51 176.879 2116.52 181.551 2131.51 181.571C2143.54 181.578 2151.83 179.571 2161.85 175.391C2177.69 168.789 2195.78 164.379 2213.01 160.621C2216.94 159.75 2220.95 157.828 2224.92 157.141C2227.16 156.75 2230.05 157.141 2232.03 156.512C2234.64 155.672 2236.24 153.512 2239.05 152.551C2243.46 151.031 2249.02 150.93 2253.58 149.379C2259.9 147.219 2264.39 144.11 2269.55 140.871C2276.54 136.469 2283.47 131.61 2290.77 127.551C2297.02 124.071 2305.44 121.891 2310.95 117.578C2315.18 114.281 2318.81 111.121 2323.34 107.891C2327.84 104.672 2329.24 101.129 2335.41 99.8401C2340.94 98.6799 2347.32 99.469 2352.88 97.219C2358.11 95.1096 2363.37 91.1487 2365.67 87.0315C2363.86 92.301 2371.44 97.9221 2377.26 100.571C2381.69 102.578 2386.17 101.961 2390.86 103.239C2395.78 104.578 2401.31 107.942 2405.15 110.672C2408.7 113.211 2411.06 115.969 2415.31 118.149C2420.93 121.031 2427.29 122.481 2433.14 124.891C2438.32 127.031 2439.49 128.25 2442.98 131.59C2450.56 138.852 2461.59 143.352 2472.78 146.66C2478.04 148.219 2482.91 150.809 2487.73 152.16C2493.09 153.672 2500.36 153.328 2506.2 154.942C2510.74 156.199 2514.77 158.301 2519.34 158.989C2524.2 159.719 2530.85 158.899 2535.87 158.899C2543.96 158.899 2553.3 159.86 2561.29 158.989C2565.82 158.489 2570.83 157.239 2575.41 156.36C2591.91 153.199 2608.77 147.489 2624.81 143.09C2652.94 135.371 2682.13 126.711 2706.26 113.051C2728.38 100.551 2748.77 85.8713 2772.27 74.8987C2790.41 66.4416 2804.38 53.0901 2822.72 44.8713C2832.6 40.4495 2837.76 34.4612 2846.22 29.0393C2853.48 24.3987 2860.79 20.0784 2868.25 15.6721C2874.01 12.2698 2879.45 8.55884 2885.74 5.76197C2888.66 4.469 2895.75 0.289309 2898.88 0.179935C2903.25 0.0393091 2906.1 3.50025 2909.54 5.85181C2915.14 9.6604 2920.85 11.8401 2927.28 14.8909C2933.57 17.8792 2937.07 20.5315 2940.22 25.4221C2946.25 34.7815 2943.57 44.3401 2947.64 53.9221C2949.3 57.8284 2951.31 62.3713 2954.39 65.4299C2958.89 69.8909 2966.66 74.969 2972.68 78.1487C2978.65 81.2893 2987.62 83.9221 2994.52 85.5002C2998.28 86.3596 3003.05 85.551 3006.34 86.5588C3011.39 88.1213 3014.56 92.1409 3020.23 93.3088C3027.74 94.8713 3033 91.9885 3038.68 88.7698C3047.02 84.051 3055.98 80.8284 3064.62 76.6604C3072.94 72.6604 3079.54 67.012 3088.18 64.0198C3100.05 72.9417 3114.9 80.3596 3128.05 88.2112C3135.57 92.6916 3152.38 97.6409 3154.99 104.489C3157.61 111.352 3158.25 118.629 3163.6 124.879C3168.27 130.36 3176.98 134.77 3183.79 139.012C3197.85 147.789 3212.4 154.27 3228.5 160.66C3246 167.578 3268.96 164.391 3280.93 176.93C3284.01 180.16 3287.9 182.449 3290.2 186.121C3292.05 189.059 3292.66 192.149 3294.41 195.141C3296.38 198.5 3300.05 204.469 3303.61 206.809C3307.7 209.5 3310.72 209.59 3317.06 210.391C3338.86 213.129 3360.75 213.699 3382.31 217.922C3387.75 218.699 3392.91 220.039 3397.8 221.942C3398.92 222.571 3399.85 223.321 3400.59 224.211C3405.26 225.52 3410.83 225.52 3415.86 226.77C3427.09 229.551 3439.08 231.821 3449.86 235.539C3454.86 237.27 3454.62 238.231 3460.45 238.469C3475.93 239.129 3491.91 232.949 3506.29 229.649C3518.21 226.922 3528.39 225.379 3540.49 224.739C3546.04 224.442 3553.03 221.301 3558.54 222.172C3562.8 222.86 3564.18 225.469 3567.21 227.489C3570.24 229.531 3573.94 231.301 3577.17 233.16C3586.67 238.649 3602.76 238.481 3614.77 240.422C3633.87 243.512 3652.71 248.93 3671.49 251.949C3672.99 251.828 3674.5 251.762 3676 251.75Z" fill="white"/>
</mask>
<g mask="url(#mask1_3316_579)">
<mask id="mask2_3316_579" style="mask-type:luminance" maskUnits="userSpaceOnUse" x="0" y="0" width="3676" height="831">
<path d="M3676 251.75V830.09H0.460938L0.449219 459.692C3.12109 460.281 34.9492 337.629 40.1094 334.489C45.7109 331.09 51.1289 327.489 56.8281 324.16C63.8906 320.051 72.2891 317.559 79.0898 313.051C86.8789 307.871 89.6094 301.321 94.0391 294.672C95.7383 292.121 98.0898 290.489 99.3516 287.531C101.52 282.5 101.539 278.469 105.77 273.879C111.77 267.36 119.93 263.16 124.691 256.371C127.02 253.051 127.34 249.942 132.84 249.231C137.141 248.672 143.602 250.989 147.789 251.649C157.539 253.199 172.262 256.91 178.559 262.989C184.059 268.289 187.961 272.68 195.629 276.649C204.078 281.02 214 283.512 222.449 287.871C227.301 290.379 377.18 115.239 383.23 115.981C385.172 116.219 387.262 115.602 389.211 115.762C393.75 116.129 392.25 116.571 395.641 117.489C409.172 121.149 420.91 127.84 433.898 132.551C441.211 135.199 447.891 137.762 454.988 140.77C461.422 143.512 465.828 147.879 472.199 150.5C478.762 153.199 487.48 152.102 495.281 152.102C499.961 152.102 504.641 152.141 509.328 152.11C516.949 152.071 522.578 153.489 529.73 154.489C533.262 154.981 537.871 154.41 541.469 154.379C548.449 154.321 551.809 155.18 558.09 156.422C562.551 157.301 567.449 158.352 572.051 159.031C575.352 159.52 579.461 158.512 582.762 158.77C588.211 159.231 592.809 161.039 598.371 161.289C615.609 162.059 633.789 161.781 651.031 161.281C658.379 161.059 664.102 159 670.18 156.071C677.102 152.75 684.43 150.86 691.031 147.059C700.031 141.871 709.77 139.969 719.02 136.031C731.359 130.77 745.898 126.309 759.289 122.012C766.059 119.828 772.961 118.149 779.059 113.578C789.23 105.961 799.031 96.7112 808.301 88.6799C813.031 84.5901 822.691 76.0901 830.039 74.9299C838.73 73.551 844.109 77.6799 850.16 81.2502C856.109 84.7502 862.762 86.7112 868.789 90.012C874.039 92.8791 879.211 93.3596 883.352 97.1292C886.609 100.078 887.352 102.828 889.191 106.239C892.602 112.551 900.398 119.102 906.879 123.84C915.621 130.239 922.91 137.891 936.27 138.539C944.75 138.949 951.57 134.75 959.68 132.84C969.551 130.531 979.109 127.629 988.988 125.34C995.789 123.77 999.891 121.789 1005.71 124.239C1010.6 126.289 1013.99 129.461 1019.19 131.239C1024.93 133.211 1030.76 132.91 1036.48 134.16C1041.19 135.18 1045.41 137.61 1049.9 139.11C1054.31 140.571 1058.55 140.989 1062.52 142.41C1086.13 150.899 1111.79 158.051 1134.42 168.031C1145.18 172.77 1158.15 175.969 1169.57 179.981C1178.52 183.141 1193.02 182.559 1201.73 179.371C1210.02 176.309 1217.27 173.828 1223.99 169.68C1231.64 164.942 1240.92 161.922 1250.16 161.121C1258.7 160.379 1265.91 161.039 1274.15 159.41C1290.83 156.102 1312.22 158.942 1329.31 158.91C1344.81 158.879 1359.69 158.61 1374.96 160.621C1380.3 161.309 1385.59 163.012 1390.81 163.559C1396 164.11 1397.1 164.219 1401.47 165.43C1406.78 166.899 1411.06 168.489 1416.76 167.899C1425.54 167 1430.83 161.102 1437.92 157.641C1443.21 155.059 1448.75 151.899 1454.29 149.711C1462.05 146.649 1469.67 144.192 1477.43 140.981C1482.35 138.949 1487.34 137.922 1492.53 136.301C1496.91 134.93 1500.29 132.129 1504.24 130.641C1520.4 124.59 1538.05 126.809 1554.09 133.699C1569.73 140.422 1587.74 137.301 1604.52 140.762C1609.05 141.699 1613.21 142.852 1617.98 143.078C1621.82 143.27 1626.37 142.25 1630.09 142.922C1633.53 143.531 1636.66 144.781 1640.37 145.52C1645.39 146.52 1650.56 148.27 1655.32 149.809C1664.44 152.762 1672.52 155.422 1680.67 159.469C1687.03 162.621 1691.46 166.789 1697.46 170.239C1702.92 173.379 1710.12 176.469 1716.57 177.102C1720.45 177.469 1726.29 177.52 1730.06 177.141C1737.85 176.371 1740.51 172.289 1746.91 169.301C1753.08 166.41 1754.6 166.031 1759.23 161.672C1761.27 159.77 1764.71 157.461 1767.38 156C1775.98 151.352 1784.67 147.219 1793.15 141.922C1798.01 138.879 1804.1 136.61 1808.72 133.34C1811.18 131.61 1812.62 129.36 1815.17 127.711C1822.27 123.149 1832.5 116.891 1840.98 113.809C1847.42 111.469 1853.67 108.84 1860.07 106.68C1861.47 106.211 1863.9 107.262 1865.48 106.43C1866.88 105.68 1867.64 103.149 1868.97 102.141C1873.08 99.0706 1881.08 95.2698 1885.93 93.1409C1894.41 89.4221 1899.32 81.3284 1911.13 83.9612C1914.48 84.719 1916.62 87.012 1920.11 88.0002C1932.41 91.4885 1947.2 94.7385 1960.11 96.6604C1964.19 97.2502 1975.83 96.3596 1979.16 98.0198C1979.98 98.4299 1982.31 102.039 1982.54 102.239C1984.22 103.602 1987.15 104.578 1989.09 105.5C1997.41 109.399 2005.05 112.891 2012.63 117.571C2020.49 122.442 2030.32 125.18 2038.8 129.379C2051.21 135.5 2063.86 142.762 2075.42 149.719C2085.17 155.571 2086.99 163.809 2096.22 169.692C2107.51 176.879 2116.52 181.551 2131.51 181.571C2143.54 181.578 2151.83 179.571 2161.85 175.391C2177.69 168.789 2195.78 164.379 2213.01 160.621C2216.94 159.75 2220.95 157.828 2224.92 157.141C2227.16 156.75 2230.05 157.141 2232.03 156.512C2234.64 155.672 2236.24 153.512 2239.05 152.551C2243.46 151.031 2249.02 150.93 2253.58 149.379C2259.9 147.219 2264.39 144.11 2269.55 140.871C2276.54 136.469 2283.47 131.61 2290.77 127.551C2297.02 124.071 2305.44 121.891 2310.95 117.578C2315.18 114.281 2318.81 111.121 2323.34 107.891C2327.84 104.672 2329.24 101.129 2335.41 99.8401C2340.94 98.6799 2347.32 99.469 2352.88 97.219C2358.11 95.1096 2363.37 91.1487 2365.67 87.0315C2363.86 92.301 2371.44 97.9221 2377.26 100.571C2381.69 102.578 2386.17 101.961 2390.86 103.239C2395.78 104.578 2401.31 107.942 2405.15 110.672C2408.7 113.211 2411.06 115.969 2415.31 118.149C2420.93 121.031 2427.29 122.481 2433.14 124.891C2438.32 127.031 2439.49 128.25 2442.98 131.59C2450.56 138.852 2461.59 143.352 2472.78 146.66C2478.04 148.219 2482.91 150.809 2487.73 152.16C2493.09 153.672 2500.36 153.328 2506.2 154.942C2510.74 156.199 2514.77 158.301 2519.34 158.989C2524.2 159.719 2530.85 158.899 2535.87 158.899C2543.96 158.899 2553.3 159.86 2561.29 158.989C2565.82 158.489 2570.83 157.239 2575.41 156.36C2591.91 153.199 2608.77 147.489 2624.81 143.09C2652.94 135.371 2682.13 126.711 2706.26 113.051C2728.38 100.551 2748.77 85.8713 2772.27 74.8987C2790.41 66.4416 2804.38 53.0901 2822.72 44.8713C2832.6 40.4495 2837.76 34.4612 2846.22 29.0393C2853.48 24.3987 2860.79 20.0784 2868.25 15.6721C2874.01 12.2698 2879.45 8.55884 2885.74 5.76197C2888.66 4.469 2895.75 0.289309 2898.88 0.179935C2903.25 0.0393091 2906.1 3.50025 2909.54 5.85181C2915.14 9.6604 2920.85 11.8401 2927.28 14.8909C2933.57 17.8792 2937.07 20.5315 2940.22 25.4221C2946.25 34.7815 2943.57 44.3401 2947.64 53.9221C2949.3 57.8284 2951.31 62.3713 2954.39 65.4299C2958.89 69.8909 2966.66 74.969 2972.68 78.1487C2978.65 81.2893 2987.62 83.9221 2994.52 85.5002C2998.28 86.3596 3003.05 85.551 3006.34 86.5588C3011.39 88.1213 3014.56 92.1409 3020.23 93.3088C3027.74 94.8713 3033 91.9885 3038.68 88.7698C3047.02 84.051 3055.98 80.8284 3064.62 76.6604C3072.94 72.6604 3079.54 67.012 3088.18 64.0198C3100.05 72.9417 3114.9 80.3596 3128.05 88.2112C3135.57 92.6916 3152.38 97.6409 3154.99 104.489C3157.61 111.352 3158.25 118.629 3163.6 124.879C3168.27 130.36 3176.98 134.77 3183.79 139.012C3197.85 147.789 3212.4 154.27 3228.5 160.66C3246 167.578 3268.96 164.391 3280.93 176.93C3284.01 180.16 3287.9 182.449 3290.2 186.121C3292.05 189.059 3292.66 192.149 3294.41 195.141C3296.38 198.5 3300.05 204.469 3303.61 206.809C3307.7 209.5 3310.72 209.59 3317.06 210.391C3338.86 213.129 3360.75 213.699 3382.31 217.922C3387.75 218.699 3392.91 220.039 3397.8 221.942C3398.92 222.571 3399.85 223.321 3400.59 224.211C3405.26 225.52 3410.83 225.52 3415.86 226.77C3427.09 229.551 3439.08 231.821 3449.86 235.539C3454.86 237.27 3454.62 238.231 3460.45 238.469C3475.93 239.129 3491.91 232.949 3506.29 229.649C3518.21 226.922 3528.39 225.379 3540.49 224.739C3546.04 224.442 3553.03 221.301 3558.54 222.172C3562.8 222.86 3564.18 225.469 3567.21 227.489C3570.24 229.531 3573.94 231.301 3577.17 233.16C3586.67 238.649 3602.76 238.481 3614.77 240.422C3633.87 243.512 3652.71 248.93 3671.49 251.949C3672.99 251.828 3674.5 251.762 3676 251.75Z" fill="white"/>
</mask>
<g mask="url(#mask2_3316_579)">
<path d="M3675.83 -24.793L-5.15625 0.078125L0.617188 854.922L3681.61 830.051L3675.83 -24.793Z" fill="url(#paint0_linear_3316_579)"/>
</g>
</g>
</g>
<defs>
<linearGradient id="paint0_linear_3316_579" x1="1834.49" y1="-12.3512" x2="1840.26" y2="842.493" gradientUnits="userSpaceOnUse">
<stop stop-color="#93DACF"/>
<stop offset="0.125" stop-color="#93DACF"/>
<stop offset="0.1875" stop-color="#93DACF"/>
<stop offset="0.195312" stop-color="#94DAD0"/>
<stop offset="0.203125" stop-color="#95DBD0"/>
<stop offset="0.210938" stop-color="#96DBD1"/>
<stop offset="0.214844" stop-color="#97DCD1"/>
<stop offset="0.21875" stop-color="#98DCD1"/>
<stop offset="0.226563" stop-color="#98DCD2"/>
<stop offset="0.230469" stop-color="#9ADDD2"/>
<stop offset="0.234375" stop-color="#9BDDD2"/>
<stop offset="0.238281" stop-color="#9CDDD3"/>
<stop offset="0.242188" stop-color="#9DDDD3"/>
<stop offset="0.246094" stop-color="#9DDED3"/>
<stop offset="0.25" stop-color="#9EDED4"/>
<stop offset="0.257812" stop-color="#9EDED4"/>
<stop offset="0.265625" stop-color="#9FDED5"/>
<stop offset="0.269531" stop-color="#A0DFD5"/>
<stop offset="0.273438" stop-color="#A1DFD5"/>
<stop offset="0.28125" stop-color="#A2DFD6"/>
<stop offset="0.289062" stop-color="#A2DFD6"/>
<stop offset="0.292969" stop-color="#A3E0D6"/>
<stop offset="0.296875" stop-color="#A4E0D6"/>
<stop offset="0.300781" stop-color="#A4E0D6"/>
<stop offset="0.304688" stop-color="#A5E0D7"/>
<stop offset="0.3125" stop-color="#A6E1D7"/>
<stop offset="0.316406" stop-color="#A7E1D7"/>
<stop offset="0.320312" stop-color="#A7E1D8"/>
<stop offset="0.324219" stop-color="#A8E1D8"/>
<stop offset="0.328125" stop-color="#A9E2D8"/>
<stop offset="0.335938" stop-color="#AAE2D8"/>
<stop offset="0.34375" stop-color="#ABE2D9"/>
<stop offset="0.351562" stop-color="#ABE3D9"/>
<stop offset="0.355469" stop-color="#ADE3DA"/>
<stop offset="0.359375" stop-color="#AEE3DA"/>
<stop offset="0.363281" stop-color="#AEE3DB"/>
<stop offset="0.367188" stop-color="#AFE4DB"/>
<stop offset="0.375" stop-color="#AFE4DB"/>
<stop offset="0.382812" stop-color="#B0E4DB"/>
<stop offset="0.386719" stop-color="#B1E5DC"/>
<stop offset="0.390625" stop-color="#B2E5DD"/>
<stop offset="0.394531" stop-color="#B3E5DD"/>
<stop offset="0.398438" stop-color="#B4E5DD"/>
<stop offset="0.402344" stop-color="#B4E6DD"/>
<stop offset="0.40625" stop-color="#B5E6DD"/>
<stop offset="0.410156" stop-color="#B6E6DE"/>
<stop offset="0.414063" stop-color="#B6E6DE"/>
<stop offset="0.417969" stop-color="#B7E6DE"/>
<stop offset="0.421875" stop-color="#B8E7DE"/>
<stop offset="0.425781" stop-color="#B9E7DF"/>
<stop offset="0.429688" stop-color="#B9E7DF"/>
<stop offset="0.4375" stop-color="#BAE7E0"/>
<stop offset="0.441406" stop-color="#BBE8E0"/>
<stop offset="0.445312" stop-color="#BBE8E1"/>
<stop offset="0.449219" stop-color="#BCE8E1"/>
<stop offset="0.453125" stop-color="#BDE9E2"/>
<stop offset="0.457031" stop-color="#BEE9E2"/>
<stop offset="0.460938" stop-color="#BFE9E2"/>
<stop offset="0.464844" stop-color="#C0EAE2"/>
<stop offset="0.46875" stop-color="#C1EAE3"/>
<stop offset="0.476562" stop-color="#C1EAE3"/>
<stop offset="0.484375" stop-color="#C2EAE3"/>
<stop offset="0.492188" stop-color="#C3EBE4"/>
<stop offset="0.496094" stop-color="#C5EBE4"/>
<stop offset="0.5" stop-color="#C6EBE4"/>
<stop offset="0.503906" stop-color="#C6ECE4"/>
<stop offset="0.507812" stop-color="#C7ECE5"/>
<stop offset="0.511719" stop-color="#C8ECE5"/>
<stop offset="0.515625" stop-color="#C8ECE5"/>
<stop offset="0.519531" stop-color="#C9EDE6"/>
<stop offset="0.523438" stop-color="#CAEDE6"/>
<stop offset="0.527344" stop-color="#CAEDE6"/>
<stop offset="0.53125" stop-color="#CBEDE7"/>
<stop offset="0.535156" stop-color="#CCEDE7"/>
<stop offset="0.539062" stop-color="#CCEEE7"/>
<stop offset="0.542969" stop-color="#CDEEE7"/>
<stop offset="0.546875" stop-color="#CEEEE7"/>
<stop offset="0.550781" stop-color="#CFEEE7"/>
<stop offset="0.554688" stop-color="#CFEFE8"/>
<stop offset="0.5625" stop-color="#D0EFE8"/>
<stop offset="0.566406" stop-color="#D1EFE9"/>
<stop offset="0.570312" stop-color="#D1EFE9"/>
<stop offset="0.574219" stop-color="#D2F0EA"/>
<stop offset="0.578125" stop-color="#D3F0EA"/>
<stop offset="0.582031" stop-color="#D4F0EA"/>
<stop offset="0.585938" stop-color="#D5F1EB"/>
<stop offset="0.59375" stop-color="#D6F1EB"/>
<stop offset="0.601562" stop-color="#D7F1EB"/>
<stop offset="0.605469" stop-color="#D8F2EC"/>
<stop offset="0.609375" stop-color="#D9F2EC"/>
<stop offset="0.617188" stop-color="#D9F2EC"/>
<stop offset="0.621094" stop-color="#DBF3ED"/>
<stop offset="0.625" stop-color="#DCF3ED"/>
<stop offset="0.628906" stop-color="#DDF3EE"/>
<stop offset="0.632812" stop-color="#DEF4EE"/>
<stop offset="0.636719" stop-color="#DEF4EF"/>
<stop offset="0.640625" stop-color="#DFF4EF"/>
<stop offset="0.644531" stop-color="#E0F4F0"/>
<stop offset="0.648438" stop-color="#E0F4F0"/>
<stop offset="0.652344" stop-color="#E1F5F1"/>
<stop offset="0.65625" stop-color="#E2F5F1"/>
<stop offset="0.660156" stop-color="#E3F5F2"/>
<stop offset="0.664062" stop-color="#E4F6F2"/>
<stop offset="0.667969" stop-color="#E5F6F3"/>
<stop offset="0.671875" stop-color="#E5F6F3"/>
<stop offset="0.675781" stop-color="#E6F7F4"/>
<stop offset="0.679688" stop-color="#E7F7F4"/>
<stop offset="0.683594" stop-color="#E8F7F4"/>
<stop offset="0.6875" stop-color="#E8F7F4"/>
<stop offset="0.691406" stop-color="#E9F7F5"/>
<stop offset="0.695312" stop-color="#EAF8F5"/>
<stop offset="0.699219" stop-color="#EAF8F5"/>
<stop offset="0.703125" stop-color="#EBF8F5"/>
<stop offset="0.71875" stop-color="#ECF8F6"/>
<stop offset="0.75" stop-color="#ECF8F6"/>
<stop offset="1" stop-color="#ECF8F6"/>
</linearGradient>
</defs>
</svg>
