<svg width="5500" height="1074" viewBox="0 0 5500 1074" fill="none" xmlns="http://www.w3.org/2000/svg">
<mask id="mask0_3316_592" style="mask-type:luminance" maskUnits="userSpaceOnUse" x="0" y="0" width="5500" height="1074">
<path d="M0 0H5500V1074H0V0Z" fill="white"/>
</mask>
<g mask="url(#mask0_3316_592)">
<mask id="mask1_3316_592" style="mask-type:luminance" maskUnits="userSpaceOnUse" x="0" y="0" width="5500" height="1074">
<path d="M5460.38 309.891C5435.1 298.41 5403.96 296.262 5375.05 292.121C5365.66 290.781 5356.37 289.262 5346.76 288.969C5336.56 288.672 5328.47 290.59 5318.66 292.219C5311.1 293.469 5307.07 297.93 5298.83 299.031C5285.13 300.871 5270.44 299.93 5257.12 303.262C5250.27 304.969 5243.66 306.828 5236.8 308.34C5225.95 310.73 5214.61 311.398 5203.9 314.078C5198.36 315.461 5190.92 319.789 5185.34 320.23C5181.24 320.539 5178.43 317.988 5174.44 317.172C5157.9 313.73 5140.72 311.699 5126.01 304.578C5121.6 302.441 5119.46 301.762 5113.78 300.859C5103.67 299.238 5094.37 296.68 5083.98 295.949C5070.07 294.949 5056.15 293.961 5042.22 293.02C5034.27 292.488 5026.53 291.891 5018.67 290.781C5015.24 290.309 5010.2 288.762 5006.7 289.121C4998.94 289.91 4989.32 295.281 4981.39 297.82C4979.94 298.281 4974.98 300.859 4973.25 301.121C4970.29 301.57 4966.23 299.629 4963.3 299C4952.27 296.602 4939.84 297.711 4928.51 297.738C4912.44 297.781 4895.35 298.801 4879.35 297.352C4868.29 296.352 4856.94 295.68 4846.64 292.289C4836.61 288.988 4827.35 284.77 4816.9 282.09C4809.38 280.172 4801.91 278.469 4794.63 276.059C4791.64 275.078 4788.75 273.078 4786.14 272.199C4781.82 270.719 4774.7 270.551 4770.17 270.219C4754.62 269.109 4738.49 270.16 4722.83 270.078C4715.47 270.031 4708.97 271.672 4701.68 271.84C4683.46 272.289 4665.59 271.512 4648.72 266.621C4631.78 261.699 4614.47 254.82 4598.11 248.031C4592.88 245.859 4587.63 244.57 4581.89 242.922C4574.06 240.672 4566.54 236.371 4560.54 232.039C4554.63 227.781 4547.47 224.672 4541.66 220.781C4538.34 218.559 4535.95 215.27 4531.25 214.672C4527.67 214.211 4526.68 215.449 4524.14 216.48C4522.06 217.309 4520.64 217.859 4518.35 218.59C4509.64 221.371 4501.14 225.859 4491.92 227.359C4483.55 228.711 4476.67 229.988 4470.09 225.859C4465.46 222.949 4462.6 219.512 4459.44 215.789C4455.24 210.859 4452.3 205.43 4447.67 200.441C4442.35 194.711 4436.31 190.762 4428.34 187.129C4417.38 182.16 4406.55 177.23 4395.94 171.91C4391.58 169.711 4387.7 168.301 4383.97 165.609C4382.46 164.512 4381.44 163.379 4379.57 162.449C4372.3 158.84 4361.98 157.859 4353.73 155.922C4350.32 155.109 4346.92 153.609 4343.75 152.84C4339.03 151.699 4332.76 152.219 4327.7 151.66C4307.99 149.48 4288.97 146.73 4273.47 136.941C4270.28 134.922 4267.11 132.469 4264.67 129.941C4263.87 129.109 4262.44 126.41 4261.63 125.859C4260.3 124.941 4258.2 124.5 4256.48 123.59C4254.76 122.66 4253.65 121.039 4251.95 120.078C4249.23 118.539 4237.98 113.371 4234.9 114.488C4232.96 115.191 4229.17 121.391 4227.72 123.109C4224.67 126.762 4221.67 129.969 4219.08 133.828C4216.54 137.602 4213.04 139.73 4209.1 142.801C4205.9 145.301 4203.78 148.32 4200.68 150.871C4198.26 152.859 4195.64 155.602 4193.09 157.352C4191.02 158.762 4187.81 159.262 4185.46 160.43C4179.21 163.551 4171.34 167.77 4164.23 169.672C4152.49 172.789 4139.55 173.59 4127.68 176.672C4116.83 179.48 4106.63 182.512 4097.35 187.379C4088.1 192.23 4079.32 197.738 4071.36 203.512C4065.67 207.641 4059.96 210.898 4052.47 212.578C4046.61 213.898 4040.37 214.031 4034.86 215.531C4028.62 217.219 4024.21 220.891 4019.54 224.039C4009.33 230.922 4001.94 241.078 3991.06 247.641C3986.14 250.609 3975.1 251.48 3968.95 252.828C3961.7 254.41 3954.1 254.719 3946.85 256.25C3939.93 257.73 3935.99 258.488 3928.96 257.121C3915.83 254.57 3906.54 247.898 3894.72 244.148C3891.94 243.262 3889.78 242.199 3886.67 241.52C3882.96 240.719 3880.41 241.191 3876.54 240.77C3870.45 240.121 3863.79 237.922 3857.75 236.84C3856.92 236.691 3856.2 235.609 3854.98 235.41C3853.42 235.129 3851.68 235.672 3850.09 235.539C3846.87 235.27 3846.82 235.281 3844.25 233.781C3840.88 231.801 3838.03 229.039 3834.84 226.859C3830.63 223.969 3827.83 220.328 3821.94 219.859C3815.04 219.301 3813.42 222.301 3807.93 224.699C3805.3 225.852 3802.35 226.371 3799.79 227.719C3798.62 228.34 3797.33 229.621 3796.01 230.039C3793 231 3791.01 230.488 3789.17 229.309C3788.73 229.031 3786.58 225.93 3786.05 225.211C3784.27 222.84 3782.65 220.461 3780.82 218.109C3777.02 213.25 3775.32 208.48 3772.47 203.379C3771.59 201.801 3770.93 198.82 3769.79 197.43C3767.03 194.09 3760.71 191.77 3756.05 190.109C3752.21 188.73 3749.25 186.77 3745.56 185.309C3742.06 183.922 3738.23 183.578 3734.83 181.98C3729.18 179.309 3722.13 175.52 3718.42 171.52C3710.76 163.25 3697.46 157.328 3686.9 150.941C3677.48 145.238 3665.52 140.328 3654.73 135.988C3649.49 133.879 3644.12 130.609 3638.49 129.988C3630.88 129.148 3620.16 129.129 3612.72 130.172C3606.23 131.078 3601.53 132.789 3594.91 130.949C3582.91 127.629 3572.19 118.262 3559.65 117.91C3552.24 117.699 3544.75 117.961 3537.34 117.93C3532.13 117.91 3527.13 117.609 3522.07 118.66C3516.79 119.738 3512.28 122.32 3506.87 123.031C3503.7 118.09 3499.12 114.461 3493.29 111C3485.86 106.59 3478.54 102.121 3471.3 97.5195C3467.79 95.289 3464.35 92.3203 3460.62 90.4687C3459.06 89.6914 3457.28 89.5312 3455.63 88.6601C3453.45 87.5117 3453.47 86.4687 3450.49 85.0703C3445.95 82.9492 3440.63 81.6211 3436.09 79.4609C3424.82 74.1093 3415.63 67.6718 3405.08 61.3398C3396.33 56.0898 3387.03 51.3711 3377.8 46.5703C3371.28 43.1914 3369.24 40.7109 3361.74 43.3593C3345.5 49.1289 3332.54 59.7812 3320.63 69.9609C3310.27 78.8086 3297.28 86.75 3281.79 89.9414C3269.83 92.4101 3257.21 92.5312 3245.35 95.4101C3240.45 96.5781 3236.26 98.6406 3231.46 100.129C3224.9 102.191 3217.2 103.641 3210.89 106.07C3204.2 108.648 3197.23 112.898 3190.95 116.141C3185.18 119.109 3179.42 121.262 3173.34 123.852C3163.8 127.91 3155.74 133.43 3145.58 136.922C3139.04 139.18 3132.41 142.18 3125.6 143.988C3118.07 145.98 3109.81 146.41 3102.04 147.66C3095.94 148.629 3091.16 150.879 3085.49 152.57C3077.96 154.809 3072.54 156.82 3066.8 161.148C3060.09 166.191 3051.61 170.859 3043.21 174.199C3029.47 179.66 3015.86 182.781 3000.98 185.738C2994.04 187.109 2988.68 188.789 2981.22 188.871C2975.31 188.949 2968.72 187.969 2962.94 188.719C2959.94 189.109 2957.95 190.172 2955.12 190.609C2952.41 191.031 2949.26 190.52 2946.41 190.891C2939.33 191.82 2935.51 194.52 2929.24 196.488C2924.77 197.891 2919.89 197.738 2915.25 199.09C2902.88 202.719 2889.63 204.961 2876.7 207.441C2868.79 208.969 2860.99 210.102 2853.19 211.941C2848.02 213.172 2842.98 215.102 2837.79 216.129C2831.71 217.352 2827.81 219.07 2822.22 221.238C2816.62 223.398 2813.78 226.609 2808.68 229.051C2804.94 230.84 2800.37 232.031 2796.73 234.199C2793.86 235.91 2792.49 238.469 2790.47 240.66C2788.15 243.191 2784.88 245.07 2782.63 247.59C2779.93 250.59 2778.93 254.371 2776.86 257.539C2773.61 262.488 2768.38 263.711 2761.03 265.32C2751.48 267.398 2742.66 270.641 2733.29 273.102C2725.33 275.18 2718.85 278.621 2711.58 281.66C2707.59 283.34 2706.38 285.281 2703.45 288C2699.89 291.328 2694.92 293.441 2690.87 296.398C2686.32 299.711 2683.98 304 2678.83 306.879C2674.4 309.359 2668.41 311.23 2662.82 311.648C2655.65 312.18 2649.17 311.289 2642.83 312.879C2637.45 314.219 2631.51 317.102 2626.48 318.102C2621.12 319.16 2613.62 349.262 2607.74 355.629C2591.37 352.922 2477.36 292.23 2468.12 282.5C2460.22 274.172 2448.38 268.422 2440.46 258.789C2426.39 241.691 2420.25 220.988 2409.63 202.719C2397.72 182.27 2382.25 162.602 2372.14 141.609C2365.06 126.879 2364.73 127.352 2350.86 124.148C2342.53 122.211 2331.6 119.879 2323.41 119.609C2294.29 118.691 2273.27 138.289 2245.99 141.969C2212.88 146.461 2177.04 136.23 2144.36 144.102C2128.07 148.02 2112.81 156.871 2096.79 161.238C2065.28 169.84 2023.07 186.191 1989.5 183.102C1962.38 180.602 1949.12 150.488 1924.97 138.512C1905.6 128.898 1884.8 122.262 1865.43 112.012C1849.8 103.73 1834.59 94.25 1817.64 89.3593C1798 83.6914 1777.82 73.3984 1756.92 70.0586C1743.71 67.9609 1729.97 70.2109 1717 68.1015C1686.06 63.0586 1661.86 47.3593 1638.98 28.9492C1627.24 19.5 1597.2 -1.23831 1581.57 0.160124C1569.82 1.21091 1549.49 20.1484 1538.31 25.9687C1527.3 31.6992 1516 39.3398 1504.8 44.0586C1481.58 53.8593 1459.81 43.9609 1438.89 58.8086C1416.41 74.75 1398.22 87.5195 1370.76 93.5312C1337.68 100.77 1322.67 104.371 1302.18 127.129C1294.82 135.309 1281.76 152.828 1271 154.219C1262 155.379 1240.66 144.16 1230.32 141.922C1214.23 138.43 1198.08 136.199 1181.85 133.59C1162.24 130.43 1153.74 127.641 1135.38 134.391C1124.45 138.41 1108.69 148.57 1097.12 148.43C1087.26 148.328 1070.74 140.398 1059.92 138.16C1038.75 133.789 1018.9 126.66 1000.17 116.219C990.652 110.898 980.254 102.961 970.242 101.738C967.898 108.352 961.477 113 954.555 113.781C950.496 125.859 932.211 126.969 921.289 131.078C914.184 133.738 902.602 142.449 895.418 143.102C885.145 144.039 885.68 140.449 877.031 131.789C864.234 139.199 847.23 146.648 833.605 151.391C819.098 156.441 802.234 149.391 789.277 154.27C776.074 159.238 764.289 168.352 748.852 172.141C724.172 178.199 718.949 187.051 692.629 178.488C682.199 175.102 671.469 175.809 660.875 172.551C649.746 169.129 642.109 158.191 629.848 156.039C624.426 173.809 597.23 170.359 582.965 175.09C568.555 179.859 540.652 198.859 526.191 197.41C515.902 196.391 502.938 186.031 491.195 184.16C477.566 181.988 471.805 180.941 459.102 173.828C427.23 156.012 392.359 139.059 357.152 130.352C343.766 144.102 341.883 146.32 324.559 138.441C299.609 127.09 275.98 117.109 251.695 104.449C241.383 99.0781 222.227 86.4492 210.145 94.5508C201.988 100.031 205.492 111.871 199.762 118.211C191.777 127.039 181.188 119.43 173.172 124.371C170.016 126.32 168.812 134.629 165.496 137.801C156.605 146.32 0 163.371 0 163.371V1073.48H2608.07L5499.9 1042.41L5500 728.25V315.16C5486.2 315.211 5471.29 314.84 5460.38 309.891Z" fill="white"/>
</mask>
<g mask="url(#mask1_3316_592)">
<mask id="mask2_3316_592" style="mask-type:luminance" maskUnits="userSpaceOnUse" x="0" y="0" width="5500" height="1074">
<path d="M5460.38 309.891C5435.1 298.41 5403.96 296.262 5375.05 292.121C5365.66 290.781 5356.37 289.262 5346.76 288.969C5336.56 288.672 5328.47 290.59 5318.66 292.219C5311.1 293.469 5307.07 297.93 5298.83 299.031C5285.13 300.871 5270.44 299.93 5257.12 303.262C5250.27 304.969 5243.66 306.828 5236.8 308.34C5225.95 310.73 5214.61 311.398 5203.9 314.078C5198.36 315.461 5190.92 319.789 5185.34 320.23C5181.24 320.539 5178.43 317.988 5174.44 317.172C5157.9 313.73 5140.72 311.699 5126.01 304.578C5121.6 302.441 5119.46 301.762 5113.78 300.859C5103.67 299.238 5094.37 296.68 5083.98 295.949C5070.07 294.949 5056.15 293.961 5042.22 293.02C5034.27 292.488 5026.53 291.891 5018.67 290.781C5015.24 290.309 5010.2 288.762 5006.7 289.121C4998.94 289.91 4989.32 295.281 4981.39 297.82C4979.94 298.281 4974.98 300.859 4973.25 301.121C4970.29 301.57 4966.23 299.629 4963.3 299C4952.27 296.602 4939.84 297.711 4928.51 297.738C4912.44 297.781 4895.35 298.801 4879.35 297.352C4868.29 296.352 4856.94 295.68 4846.64 292.289C4836.61 288.988 4827.35 284.77 4816.9 282.09C4809.38 280.172 4801.91 278.469 4794.63 276.059C4791.64 275.078 4788.75 273.078 4786.14 272.199C4781.82 270.719 4774.7 270.551 4770.17 270.219C4754.62 269.109 4738.49 270.16 4722.83 270.078C4715.47 270.031 4708.97 271.672 4701.68 271.84C4683.46 272.289 4665.59 271.512 4648.72 266.621C4631.78 261.699 4614.47 254.82 4598.11 248.031C4592.88 245.859 4587.63 244.57 4581.89 242.922C4574.06 240.672 4566.54 236.371 4560.54 232.039C4554.63 227.781 4547.47 224.672 4541.66 220.781C4538.34 218.559 4535.95 215.27 4531.25 214.672C4527.67 214.211 4526.68 215.449 4524.14 216.48C4522.06 217.309 4520.64 217.859 4518.35 218.59C4509.64 221.371 4501.14 225.859 4491.92 227.359C4483.55 228.711 4476.67 229.988 4470.09 225.859C4465.46 222.949 4462.6 219.512 4459.44 215.789C4455.24 210.859 4452.3 205.43 4447.67 200.441C4442.35 194.711 4436.31 190.762 4428.34 187.129C4417.38 182.16 4406.55 177.23 4395.94 171.91C4391.58 169.711 4387.7 168.301 4383.97 165.609C4382.46 164.512 4381.44 163.379 4379.57 162.449C4372.3 158.84 4361.98 157.859 4353.73 155.922C4350.32 155.109 4346.92 153.609 4343.75 152.84C4339.03 151.699 4332.76 152.219 4327.7 151.66C4307.99 149.48 4288.97 146.73 4273.47 136.941C4270.28 134.922 4267.11 132.469 4264.67 129.941C4263.87 129.109 4262.44 126.41 4261.63 125.859C4260.3 124.941 4258.2 124.5 4256.48 123.59C4254.76 122.66 4253.65 121.039 4251.95 120.078C4249.23 118.539 4237.98 113.371 4234.9 114.488C4232.96 115.191 4229.17 121.391 4227.72 123.109C4224.67 126.762 4221.67 129.969 4219.08 133.828C4216.54 137.602 4213.04 139.73 4209.1 142.801C4205.9 145.301 4203.78 148.32 4200.68 150.871C4198.26 152.859 4195.64 155.602 4193.09 157.352C4191.02 158.762 4187.81 159.262 4185.46 160.43C4179.21 163.551 4171.34 167.77 4164.23 169.672C4152.49 172.789 4139.55 173.59 4127.68 176.672C4116.83 179.48 4106.63 182.512 4097.35 187.379C4088.1 192.23 4079.32 197.738 4071.36 203.512C4065.67 207.641 4059.96 210.898 4052.47 212.578C4046.61 213.898 4040.37 214.031 4034.86 215.531C4028.62 217.219 4024.21 220.891 4019.54 224.039C4009.33 230.922 4001.94 241.078 3991.06 247.641C3986.14 250.609 3975.1 251.48 3968.95 252.828C3961.7 254.41 3954.1 254.719 3946.85 256.25C3939.93 257.73 3935.99 258.488 3928.96 257.121C3915.83 254.57 3906.54 247.898 3894.72 244.148C3891.94 243.262 3889.78 242.199 3886.67 241.52C3882.96 240.719 3880.41 241.191 3876.54 240.77C3870.45 240.121 3863.79 237.922 3857.75 236.84C3856.92 236.691 3856.2 235.609 3854.98 235.41C3853.42 235.129 3851.68 235.672 3850.09 235.539C3846.87 235.27 3846.82 235.281 3844.25 233.781C3840.88 231.801 3838.03 229.039 3834.84 226.859C3830.63 223.969 3827.83 220.328 3821.94 219.859C3815.04 219.301 3813.42 222.301 3807.93 224.699C3805.3 225.852 3802.35 226.371 3799.79 227.719C3798.62 228.34 3797.33 229.621 3796.01 230.039C3793 231 3791.01 230.488 3789.17 229.309C3788.73 229.031 3786.58 225.93 3786.05 225.211C3784.27 222.84 3782.65 220.461 3780.82 218.109C3777.02 213.25 3775.32 208.48 3772.47 203.379C3771.59 201.801 3770.93 198.82 3769.79 197.43C3767.03 194.09 3760.71 191.77 3756.05 190.109C3752.21 188.73 3749.25 186.77 3745.56 185.309C3742.06 183.922 3738.23 183.578 3734.83 181.98C3729.18 179.309 3722.13 175.52 3718.42 171.52C3710.76 163.25 3697.46 157.328 3686.9 150.941C3677.48 145.238 3665.52 140.328 3654.73 135.988C3649.49 133.879 3644.12 130.609 3638.49 129.988C3630.88 129.148 3620.16 129.129 3612.72 130.172C3606.23 131.078 3601.53 132.789 3594.91 130.949C3582.91 127.629 3572.19 118.262 3559.65 117.91C3552.24 117.699 3544.75 117.961 3537.34 117.93C3532.13 117.91 3527.13 117.609 3522.07 118.66C3516.79 119.738 3512.28 122.32 3506.87 123.031C3503.7 118.09 3499.12 114.461 3493.29 111C3485.86 106.59 3478.54 102.121 3471.3 97.5195C3467.79 95.289 3464.35 92.3203 3460.62 90.4687C3459.06 89.6914 3457.28 89.5312 3455.63 88.6601C3453.45 87.5117 3453.47 86.4687 3450.49 85.0703C3445.95 82.9492 3440.63 81.6211 3436.09 79.4609C3424.82 74.1093 3415.63 67.6718 3405.08 61.3398C3396.33 56.0898 3387.03 51.3711 3377.8 46.5703C3371.28 43.1914 3369.24 40.7109 3361.74 43.3593C3345.5 49.1289 3332.54 59.7812 3320.63 69.9609C3310.27 78.8086 3297.28 86.75 3281.79 89.9414C3269.83 92.4101 3257.21 92.5312 3245.35 95.4101C3240.45 96.5781 3236.26 98.6406 3231.46 100.129C3224.9 102.191 3217.2 103.641 3210.89 106.07C3204.2 108.648 3197.23 112.898 3190.95 116.141C3185.18 119.109 3179.42 121.262 3173.34 123.852C3163.8 127.91 3155.74 133.43 3145.58 136.922C3139.04 139.18 3132.41 142.18 3125.6 143.988C3118.07 145.98 3109.81 146.41 3102.04 147.66C3095.94 148.629 3091.16 150.879 3085.49 152.57C3077.96 154.809 3072.54 156.82 3066.8 161.148C3060.09 166.191 3051.61 170.859 3043.21 174.199C3029.47 179.66 3015.86 182.781 3000.98 185.738C2994.04 187.109 2988.68 188.789 2981.22 188.871C2975.31 188.949 2968.72 187.969 2962.94 188.719C2959.94 189.109 2957.95 190.172 2955.12 190.609C2952.41 191.031 2949.26 190.52 2946.41 190.891C2939.33 191.82 2935.51 194.52 2929.24 196.488C2924.77 197.891 2919.89 197.738 2915.25 199.09C2902.88 202.719 2889.63 204.961 2876.7 207.441C2868.79 208.969 2860.99 210.102 2853.19 211.941C2848.02 213.172 2842.98 215.102 2837.79 216.129C2831.71 217.352 2827.81 219.07 2822.22 221.238C2816.62 223.398 2813.78 226.609 2808.68 229.051C2804.94 230.84 2800.37 232.031 2796.73 234.199C2793.86 235.91 2792.49 238.469 2790.47 240.66C2788.15 243.191 2784.88 245.07 2782.63 247.59C2779.93 250.59 2778.93 254.371 2776.86 257.539C2773.61 262.488 2768.38 263.711 2761.03 265.32C2751.48 267.398 2742.66 270.641 2733.29 273.102C2725.33 275.18 2718.85 278.621 2711.58 281.66C2707.59 283.34 2706.38 285.281 2703.45 288C2699.89 291.328 2694.92 293.441 2690.87 296.398C2686.32 299.711 2683.98 304 2678.83 306.879C2674.4 309.359 2668.41 311.23 2662.82 311.648C2655.65 312.18 2649.17 311.289 2642.83 312.879C2637.45 314.219 2631.51 317.102 2626.48 318.102C2621.12 319.16 2613.62 349.262 2607.74 355.629C2591.37 352.922 2477.36 292.23 2468.12 282.5C2460.22 274.172 2448.38 268.422 2440.46 258.789C2426.39 241.691 2420.25 220.988 2409.63 202.719C2397.72 182.27 2382.25 162.602 2372.14 141.609C2365.06 126.879 2364.73 127.352 2350.86 124.148C2342.53 122.211 2331.6 119.879 2323.41 119.609C2294.29 118.691 2273.27 138.289 2245.99 141.969C2212.88 146.461 2177.04 136.23 2144.36 144.102C2128.07 148.02 2112.81 156.871 2096.79 161.238C2065.28 169.84 2023.07 186.191 1989.5 183.102C1962.38 180.602 1949.12 150.488 1924.97 138.512C1905.6 128.898 1884.8 122.262 1865.43 112.012C1849.8 103.73 1834.59 94.25 1817.64 89.3593C1798 83.6914 1777.82 73.3984 1756.92 70.0586C1743.71 67.9609 1729.97 70.2109 1717 68.1015C1686.06 63.0586 1661.86 47.3593 1638.98 28.9492C1627.24 19.5 1597.2 -1.23831 1581.57 0.160124C1569.82 1.21091 1549.49 20.1484 1538.31 25.9687C1527.3 31.6992 1516 39.3398 1504.8 44.0586C1481.58 53.8593 1459.81 43.9609 1438.89 58.8086C1416.41 74.75 1398.22 87.5195 1370.76 93.5312C1337.68 100.77 1322.67 104.371 1302.18 127.129C1294.82 135.309 1281.76 152.828 1271 154.219C1262 155.379 1240.66 144.16 1230.32 141.922C1214.23 138.43 1198.08 136.199 1181.85 133.59C1162.24 130.43 1153.74 127.641 1135.38 134.391C1124.45 138.41 1108.69 148.57 1097.12 148.43C1087.26 148.328 1070.74 140.398 1059.92 138.16C1038.75 133.789 1018.9 126.66 1000.17 116.219C990.652 110.898 980.254 102.961 970.242 101.738C967.898 108.352 961.477 113 954.555 113.781C950.496 125.859 932.211 126.969 921.289 131.078C914.184 133.738 902.602 142.449 895.418 143.102C885.145 144.039 885.68 140.449 877.031 131.789C864.234 139.199 847.23 146.648 833.605 151.391C819.098 156.441 802.234 149.391 789.277 154.27C776.074 159.238 764.289 168.352 748.852 172.141C724.172 178.199 718.949 187.051 692.629 178.488C682.199 175.102 671.469 175.809 660.875 172.551C649.746 169.129 642.109 158.191 629.848 156.039C624.426 173.809 597.23 170.359 582.965 175.09C568.555 179.859 540.652 198.859 526.191 197.41C515.902 196.391 502.938 186.031 491.195 184.16C477.566 181.988 471.805 180.941 459.102 173.828C427.23 156.012 392.359 139.059 357.152 130.352C343.766 144.102 341.883 146.32 324.559 138.441C299.609 127.09 275.98 117.109 251.695 104.449C241.383 99.0781 222.227 86.4492 210.145 94.5508C201.988 100.031 205.492 111.871 199.762 118.211C191.777 127.039 181.188 119.43 173.172 124.371C170.016 126.32 168.812 134.629 165.496 137.801C156.605 146.32 0 163.371 0 163.371V1073.48H2608.07L5499.9 1042.41L5500 728.25V315.16C5486.2 315.211 5471.29 314.84 5460.38 309.891Z" fill="white"/>
</mask>
<g mask="url(#mask2_3316_592)">
<path d="M4.57422 1232L5530.98 1072.59L5495.43 -159.762L-30.9766 -0.347656L4.57422 1232Z" fill="url(#paint0_linear_3316_592)"/>
</g>
</g>
</g>
<defs>
<linearGradient id="paint0_linear_3316_592" x1="2763.22" y1="1152.43" x2="2727.67" y2="-79.9232" gradientUnits="userSpaceOnUse">
<stop stop-color="#D7EFE5"/>
<stop offset="0.25" stop-color="#D7EFE5"/>
<stop offset="0.375" stop-color="#D7EFE5"/>
<stop offset="0.4375" stop-color="#D7EFE5"/>
<stop offset="0.453125" stop-color="#D7EFE5"/>
<stop offset="0.457031" stop-color="#D5EFE4"/>
<stop offset="0.460938" stop-color="#D4EFE4"/>
<stop offset="0.464844" stop-color="#D3EFE4"/>
<stop offset="0.46875" stop-color="#D2EFE4"/>
<stop offset="0.472656" stop-color="#D2EEE3"/>
<stop offset="0.476563" stop-color="#D1EEE3"/>
<stop offset="0.480469" stop-color="#D0EEE2"/>
<stop offset="0.484375" stop-color="#CEEDE2"/>
<stop offset="0.488281" stop-color="#CDEDE1"/>
<stop offset="0.492188" stop-color="#CCECE1"/>
<stop offset="0.496094" stop-color="#CAECE0"/>
<stop offset="0.5" stop-color="#C9EBDF"/>
<stop offset="0.503906" stop-color="#C8EBDE"/>
<stop offset="0.507812" stop-color="#C7EBDE"/>
<stop offset="0.511719" stop-color="#C5EBDE"/>
<stop offset="0.515625" stop-color="#C4EADE"/>
<stop offset="0.519531" stop-color="#C3EADD"/>
<stop offset="0.523438" stop-color="#C2EADD"/>
<stop offset="0.527344" stop-color="#C1E9DC"/>
<stop offset="0.53125" stop-color="#C0E9DC"/>
<stop offset="0.535156" stop-color="#BFE9DC"/>
<stop offset="0.539063" stop-color="#BEE9DB"/>
<stop offset="0.542969" stop-color="#BDE8DB"/>
<stop offset="0.546875" stop-color="#BCE8DA"/>
<stop offset="0.550781" stop-color="#BBE7DA"/>
<stop offset="0.554688" stop-color="#BAE7D9"/>
<stop offset="0.558594" stop-color="#B9E7D9"/>
<stop offset="0.5625" stop-color="#B8E6D9"/>
<stop offset="0.566406" stop-color="#B7E6D8"/>
<stop offset="0.570313" stop-color="#B6E6D8"/>
<stop offset="0.574219" stop-color="#B5E5D7"/>
<stop offset="0.578125" stop-color="#B4E5D7"/>
<stop offset="0.582031" stop-color="#B3E5D6"/>
<stop offset="0.585938" stop-color="#B2E4D6"/>
<stop offset="0.589844" stop-color="#B1E4D6"/>
<stop offset="0.59375" stop-color="#B0E4D5"/>
<stop offset="0.597656" stop-color="#AFE4D5"/>
<stop offset="0.601563" stop-color="#AEE3D4"/>
<stop offset="0.605469" stop-color="#ADE3D4"/>
<stop offset="0.609375" stop-color="#ACE2D3"/>
<stop offset="0.613281" stop-color="#ABE2D3"/>
<stop offset="0.617188" stop-color="#ABE2D2"/>
<stop offset="0.621094" stop-color="#AAE2D2"/>
<stop offset="0.625" stop-color="#A9E1D2"/>
<stop offset="0.628906" stop-color="#A7E1D1"/>
<stop offset="0.632813" stop-color="#A6E0D1"/>
<stop offset="0.636719" stop-color="#A5E0D0"/>
<stop offset="0.640625" stop-color="#A4E0D0"/>
<stop offset="0.644531" stop-color="#A3DFCF"/>
<stop offset="0.648438" stop-color="#A2DFCF"/>
<stop offset="0.652344" stop-color="#A1DFCE"/>
<stop offset="0.65625" stop-color="#A0DECE"/>
<stop offset="0.660156" stop-color="#9FDECE"/>
<stop offset="0.664062" stop-color="#9EDECD"/>
<stop offset="0.667969" stop-color="#9DDDCD"/>
<stop offset="0.671875" stop-color="#9DDDCC"/>
<stop offset="0.675781" stop-color="#9CDDCC"/>
<stop offset="0.679688" stop-color="#9ADCCC"/>
<stop offset="0.683594" stop-color="#99DCCC"/>
<stop offset="0.6875" stop-color="#98DCCB"/>
<stop offset="0.691406" stop-color="#97DBCB"/>
<stop offset="0.695312" stop-color="#96DBCB"/>
<stop offset="0.699219" stop-color="#96DBCA"/>
<stop offset="0.703125" stop-color="#95DBCA"/>
<stop offset="0.707031" stop-color="#94DACA"/>
<stop offset="0.710938" stop-color="#94DAC9"/>
<stop offset="0.714844" stop-color="#93DAC9"/>
<stop offset="0.71875" stop-color="#92DAC9"/>
<stop offset="0.722656" stop-color="#91D9C8"/>
<stop offset="0.726563" stop-color="#90D9C8"/>
<stop offset="0.730469" stop-color="#90D9C7"/>
<stop offset="0.734375" stop-color="#8FD9C7"/>
<stop offset="0.738281" stop-color="#8ED8C6"/>
<stop offset="0.742188" stop-color="#8DD8C6"/>
<stop offset="0.746094" stop-color="#8CD8C6"/>
<stop offset="0.75" stop-color="#8BD7C6"/>
<stop offset="0.753906" stop-color="#8AD7C5"/>
<stop offset="0.757813" stop-color="#89D7C5"/>
<stop offset="0.761719" stop-color="#89D7C5"/>
<stop offset="0.765625" stop-color="#88D6C4"/>
<stop offset="0.769531" stop-color="#87D6C4"/>
<stop offset="0.773438" stop-color="#87D6C3"/>
<stop offset="0.777344" stop-color="#86D5C3"/>
<stop offset="0.78125" stop-color="#85D5C3"/>
<stop offset="0.785156" stop-color="#84D5C3"/>
<stop offset="0.789063" stop-color="#83D4C2"/>
<stop offset="0.792969" stop-color="#82D4C2"/>
<stop offset="0.796875" stop-color="#81D4C1"/>
<stop offset="0.800781" stop-color="#80D4C1"/>
<stop offset="0.804688" stop-color="#7FD3C0"/>
<stop offset="0.808594" stop-color="#7ED3C0"/>
<stop offset="0.8125" stop-color="#7ED3C0"/>
<stop offset="0.816406" stop-color="#7DD2BF"/>
<stop offset="0.820313" stop-color="#7CD2BF"/>
<stop offset="0.824219" stop-color="#7BD2BF"/>
<stop offset="0.828125" stop-color="#7AD2BE"/>
<stop offset="0.832031" stop-color="#79D1BE"/>
<stop offset="0.835938" stop-color="#79D1BE"/>
<stop offset="0.839844" stop-color="#78D1BE"/>
<stop offset="0.84375" stop-color="#78D1BD"/>
<stop offset="0.875" stop-color="#77D1BD"/>
<stop offset="1" stop-color="#77D0BD"/>
</linearGradient>
</defs>
</svg>
