<svg width="2807" height="1012" viewBox="0 0 2807 1012" fill="none" xmlns="http://www.w3.org/2000/svg">
<mask id="mask0_3316_605" style="mask-type:luminance" maskUnits="userSpaceOnUse" x="0" y="0" width="2807" height="1012">
<path d="M0 0H2807V1012H0V0Z" fill="white"/>
</mask>
<g mask="url(#mask0_3316_605)">
<mask id="mask1_3316_605" style="mask-type:luminance" maskUnits="userSpaceOnUse" x="0" y="0" width="2807" height="1012">
<path d="M0 1011.09H2608.07L2806.65 376.461C2789.43 370.211 2573.67 212.48 2555.39 208.219C2544.11 205.594 2532.58 202.984 2522.86 196.367C2514.64 190.777 2513.87 186.043 2503.88 184.5C2496.92 183.426 2494.68 187.223 2486.56 184.383C2480.94 182.414 2476.13 176.832 2470.82 174.359C2465.93 172.09 2456.18 168.641 2450.45 167.125C2433.97 162.77 2404.57 161.512 2407.86 137.602C2397.2 133.059 2386.15 133.93 2375.18 131.238C2366.2 129.039 2359.87 123.609 2351.72 119.578C2335.67 111.641 2319.61 112.191 2304.71 104.16C2296.65 99.8203 2287.7 99.9609 2280.99 96.5508C2273.29 92.6289 2267.12 75.1289 2259.12 72.5703C2251.64 70.1797 2230.01 83.8203 2217.24 84.4297C2210.31 84.7617 2200.74 85.5195 2194.46 83.3594C2186.24 80.5195 2180.12 71.4688 2171.33 69.2812C2152.58 64.6094 2137.05 68.3516 2119.62 57.6289C2099.37 45.1719 2092.8 40.1484 2068.02 39.0781C2052.12 38.3789 2044.89 47.1719 2029.98 42.9102C2014.57 38.5117 2001.62 29.8906 1986.23 25.4688C1971.59 21.2617 1958.22 8.14062 1945.85 0.0117188C1942.2 8.64062 1928.2 19.8086 1918.79 22.4805C1912.37 24.3008 1907.93 22.3203 1901.18 22.4609C1881.3 22.8594 1860.86 29.3008 1841.82 34.5391C1821.39 40.1719 1811.86 50.6484 1790.19 52.6914C1772.53 54.3398 1754.84 57.8984 1736.91 57.2188C1714.83 56.3906 1692.21 58.3789 1671.26 67.8008C1653.28 75.8906 1647.71 84.8008 1627.09 85.9414C1612.26 86.7617 1600.6 89.3711 1586.67 95.4219C1559.63 107.191 1530.81 109.371 1501.44 114.359C1483.48 117.41 1465.47 119.871 1447.08 114.73C1434.03 111.09 1419.43 102.512 1405.96 104.352C1397.11 105.559 1387.55 110.328 1377.69 111.648C1360.52 113.93 1343.33 117.18 1326.23 120.621C1313.48 123.199 1291.67 132.391 1278.93 129.922C1273.3 128.828 1265.09 121.211 1259.47 118.781C1248.68 114.109 1236.67 110.309 1225.26 107.371C1209.39 103.289 1197.51 103.871 1182.48 107.16C1163.63 111.281 1145.27 111.219 1125.17 113.16C1113.47 114.27 1104.87 118.219 1093.69 122.57C1054.94 137.629 1013.98 142.359 973.672 151.277C961.324 154.008 948.531 160.172 935.586 158.277C919.523 155.922 904.453 144.102 889.664 139.18C868.223 132.07 854.117 132.691 833.445 137.719C802.215 145.297 769.559 146.438 737.559 146.406C725.402 146.398 711.938 144.738 700.113 147.508C683.211 151.48 670.453 157.102 651.949 158.453C623.473 160.547 593.434 158.066 565.52 164.973C546.41 169.691 527.914 180.762 510.23 186.887C503.91 189.078 495.871 187.164 489.059 189.281C478.328 192.602 469.762 200.484 460.625 206.5C440.234 219.906 415.496 231.641 391.387 236.914C369.945 217.781 331.992 212.875 305.141 203.816C292.125 199.41 282.453 194.465 269.762 187.078C235.832 167.336 197.848 155.711 159.051 163.078C130.305 168.535 0 167.578 0 167.578V1011.09Z" fill="white"/>
</mask>
<g mask="url(#mask1_3316_605)">
<mask id="mask2_3316_605" style="mask-type:luminance" maskUnits="userSpaceOnUse" x="0" y="0" width="2807" height="1012">
<path d="M0 1011.09H2608.07L2806.65 376.461C2789.43 370.211 2573.67 212.48 2555.39 208.219C2544.11 205.594 2532.58 202.984 2522.86 196.367C2514.64 190.777 2513.87 186.043 2503.88 184.5C2496.92 183.426 2494.68 187.223 2486.56 184.383C2480.94 182.414 2476.13 176.832 2470.82 174.359C2465.93 172.09 2456.18 168.641 2450.45 167.125C2433.97 162.77 2404.57 161.512 2407.86 137.602C2397.2 133.059 2386.15 133.93 2375.18 131.238C2366.2 129.039 2359.87 123.609 2351.72 119.578C2335.67 111.641 2319.61 112.191 2304.71 104.16C2296.65 99.8203 2287.7 99.9609 2280.99 96.5508C2273.29 92.6289 2267.12 75.1289 2259.12 72.5703C2251.64 70.1797 2230.01 83.8203 2217.24 84.4297C2210.31 84.7617 2200.74 85.5195 2194.46 83.3594C2186.24 80.5195 2180.12 71.4688 2171.33 69.2812C2152.58 64.6094 2137.05 68.3516 2119.62 57.6289C2099.37 45.1719 2092.8 40.1484 2068.02 39.0781C2052.12 38.3789 2044.89 47.1719 2029.98 42.9102C2014.57 38.5117 2001.62 29.8906 1986.23 25.4688C1971.59 21.2617 1958.22 8.14062 1945.85 0.0117188C1942.2 8.64062 1928.2 19.8086 1918.79 22.4805C1912.37 24.3008 1907.93 22.3203 1901.18 22.4609C1881.3 22.8594 1860.86 29.3008 1841.82 34.5391C1821.39 40.1719 1811.86 50.6484 1790.19 52.6914C1772.53 54.3398 1754.84 57.8984 1736.91 57.2188C1714.83 56.3906 1692.21 58.3789 1671.26 67.8008C1653.28 75.8906 1647.71 84.8008 1627.09 85.9414C1612.26 86.7617 1600.6 89.3711 1586.67 95.4219C1559.63 107.191 1530.81 109.371 1501.44 114.359C1483.48 117.41 1465.47 119.871 1447.08 114.73C1434.03 111.09 1419.43 102.512 1405.96 104.352C1397.11 105.559 1387.55 110.328 1377.69 111.648C1360.52 113.93 1343.33 117.18 1326.23 120.621C1313.48 123.199 1291.67 132.391 1278.93 129.922C1273.3 128.828 1265.09 121.211 1259.47 118.781C1248.68 114.109 1236.67 110.309 1225.26 107.371C1209.39 103.289 1197.51 103.871 1182.48 107.16C1163.63 111.281 1145.27 111.219 1125.17 113.16C1113.47 114.27 1104.87 118.219 1093.69 122.57C1054.94 137.629 1013.98 142.359 973.672 151.277C961.324 154.008 948.531 160.172 935.586 158.277C919.523 155.922 904.453 144.102 889.664 139.18C868.223 132.07 854.117 132.691 833.445 137.719C802.215 145.297 769.559 146.438 737.559 146.406C725.402 146.398 711.938 144.738 700.113 147.508C683.211 151.48 670.453 157.102 651.949 158.453C623.473 160.547 593.434 158.066 565.52 164.973C546.41 169.691 527.914 180.762 510.23 186.887C503.91 189.078 495.871 187.164 489.059 189.281C478.328 192.602 469.762 200.484 460.625 206.5C440.234 219.906 415.496 231.641 391.387 236.914C369.945 217.781 331.992 212.875 305.141 203.816C292.125 199.41 282.453 194.465 269.762 187.078C235.832 167.336 197.848 155.711 159.051 163.078C130.305 168.535 0 167.578 0 167.578V1011.09Z" fill="white"/>
</mask>
<g mask="url(#mask2_3316_605)">
<path d="M2801.79 -116.73L-42.0547 1.76172L4.86328 1127.83L2848.71 1009.34L2801.79 -116.73Z" fill="url(#paint0_linear_3316_605)"/>
</g>
</g>
</g>
<defs>
<linearGradient id="paint0_linear_3316_605" x1="1372.04" y1="-57.1584" x2="1418.96" y2="1068.91" gradientUnits="userSpaceOnUse">
<stop stop-color="#71CEBB"/>
<stop offset="0.0625" stop-color="#71CEBB"/>
<stop offset="0.09375" stop-color="#71CEBB"/>
<stop offset="0.101563" stop-color="#71CFBB"/>
<stop offset="0.109375" stop-color="#72CFBB"/>
<stop offset="0.117188" stop-color="#72CFBC"/>
<stop offset="0.125" stop-color="#73CFBC"/>
<stop offset="0.128906" stop-color="#74CFBB"/>
<stop offset="0.132812" stop-color="#74CFBB"/>
<stop offset="0.140625" stop-color="#74CFBB"/>
<stop offset="0.15625" stop-color="#74D0BC"/>
<stop offset="0.164062" stop-color="#75D0BC"/>
<stop offset="0.167969" stop-color="#76D0BC"/>
<stop offset="0.171875" stop-color="#76D0BC"/>
<stop offset="0.179688" stop-color="#76D0BC"/>
<stop offset="0.1875" stop-color="#77D0BC"/>
<stop offset="0.195312" stop-color="#77D1BC"/>
<stop offset="0.199219" stop-color="#78D1BC"/>
<stop offset="0.203125" stop-color="#78D1BD"/>
<stop offset="0.210938" stop-color="#78D1BD"/>
<stop offset="0.21875" stop-color="#79D1BD"/>
<stop offset="0.226563" stop-color="#79D1BD"/>
<stop offset="0.230469" stop-color="#7AD1BE"/>
<stop offset="0.234375" stop-color="#7AD1BE"/>
<stop offset="0.242187" stop-color="#7AD2BE"/>
<stop offset="0.246094" stop-color="#7BD2BE"/>
<stop offset="0.25" stop-color="#7CD2BE"/>
<stop offset="0.257812" stop-color="#7CD2BE"/>
<stop offset="0.265625" stop-color="#7CD2BE"/>
<stop offset="0.273437" stop-color="#7DD2BE"/>
<stop offset="0.28125" stop-color="#7ED3BE"/>
<stop offset="0.296875" stop-color="#7ED3BF"/>
<stop offset="0.304687" stop-color="#7FD3BF"/>
<stop offset="0.308594" stop-color="#80D3BF"/>
<stop offset="0.3125" stop-color="#80D4BF"/>
<stop offset="0.320312" stop-color="#81D4BF"/>
<stop offset="0.328125" stop-color="#81D4C0"/>
<stop offset="0.34375" stop-color="#82D4C0"/>
<stop offset="0.351562" stop-color="#83D4C0"/>
<stop offset="0.359375" stop-color="#83D5C0"/>
<stop offset="0.367188" stop-color="#84D5C0"/>
<stop offset="0.371094" stop-color="#85D5C0"/>
<stop offset="0.375" stop-color="#85D5C0"/>
<stop offset="0.382812" stop-color="#85D5C0"/>
<stop offset="0.390625" stop-color="#86D5C1"/>
<stop offset="0.398438" stop-color="#86D6C1"/>
<stop offset="0.40625" stop-color="#87D6C1"/>
<stop offset="0.414063" stop-color="#87D6C1"/>
<stop offset="0.421875" stop-color="#88D6C1"/>
<stop offset="0.429688" stop-color="#88D6C1"/>
<stop offset="0.433594" stop-color="#89D6C2"/>
<stop offset="0.4375" stop-color="#89D6C2"/>
<stop offset="0.445313" stop-color="#8AD7C2"/>
<stop offset="0.453125" stop-color="#8AD7C2"/>
<stop offset="0.460938" stop-color="#8BD7C2"/>
<stop offset="0.46875" stop-color="#8BD7C2"/>
<stop offset="0.476563" stop-color="#8CD7C2"/>
<stop offset="0.484375" stop-color="#8DD8C2"/>
<stop offset="0.492188" stop-color="#8DD8C2"/>
<stop offset="0.5" stop-color="#8ED8C3"/>
<stop offset="1" stop-color="#8ED8C3"/>
</linearGradient>
</defs>
</svg>
