<?xml version="1.0" standalone="no"?> <!DOCTYPE svg PUBLIC "-//W3C//DTD SVG 20010904//EN" "http://www.w3.org/TR/2001/REC-SVG-20010904/DTD/svg10.dtd"> <svg version="1.0" xmlns="http://www.w3.org/2000/svg" width="200" height="240" viewBox="200 140 200 50" preserveAspectRatio="xMidYMid meet"> <g transform="translate(0.000000,327.000000) scale(0.066667,-0.066667)" fill="#00d69f" stroke="none"> <path d="M803 4890 c-6 -8 0 -11 14 -6 26 10 30 21 9 21 -8 0 -18 -7 -23 -15z"/> <path d="M912 4895 c11 -5 24 -4 29 1 5 5 -4 8 -20 8 -17 -1 -21 -4 -9 -9z"/> <path d="M1005 4889 c0 -9 7 -12 15 -6 8 5 15 12 15 15 0 4 -7 7 -15 7 -8 0 -15 -7 -15 -16z"/> <path d="M1215 4889 c0 -9 7 -12 15 -6 8 5 15 12 15 15 0 4 -7 7 -15 7 -8 0 -15 -7 -15 -16z"/> <path d="M1295 4895 c6 -5 15 -5 20 0 6 6 1 10 -10 10 -11 0 -15 -4 -10 -10z"/> <path d="M1410 4890 c0 -11 5 -15 10 -10 6 6 6 15 0 20 -5 6 -10 1 -10 -10z"/> <path d="M1520 4895 c6 -5 15 -5 20 0 6 6 1 10 -10 10 -11 0 -15 -4 -10 -10z"/> <path d="M1601 4895 c11 -4 27 -4 38 0 10 4 2 8 -19 8 -21 0 -29 -4 -19 -8z"/> <path d="M2127 4895 c11 -5 24 -4 29 1 5 5 -4 8 -20 8 -17 -1 -21 -4 -9 -9z"/> <path d="M2258 4890 c5 -8 12 -15 16 -15 4 0 4 7 -1 15 -6 8 -13 15 -17 15 -4 0 -4 -7 2 -15z"/> <path d="M2330 4895 c6 -5 15 -5 20 0 6 6 1 10 -10 10 -11 0 -15 -4 -10 -10z"/> <path d="M3470 4895 c6 -5 15 -5 20 0 6 6 1 10 -10 10 -11 0 -15 -4 -10 -10z"/> <path d="M3650 4895 c6 -5 15 -5 20 0 6 6 1 10 -10 10 -11 0 -15 -4 -10 -10z"/> <path d="M3860 4895 c6 -5 15 -5 20 0 5 6 1 10 -10 10 -11 0 -15 -4 -10 -10z"/> <path d="M4407 4895 c11 -5 24 -4 29 1 5 5 -4 8 -20 8 -17 -1 -21 -4 -9 -9z"/> <path d="M4685 4895 c6 -5 15 -5 20 0 6 6 1 10 -10 10 -11 0 -15 -4 -10 -10z"/> <path d="M5183 4890 c-6 -8 0 -11 14 -6 26 10 30 21 9 21 -8 0 -18 -7 -23 -15z"/> <path d="M5393 4890 c5 -8 12 -15 15 -15 4 0 7 7 7 15 0 8 -7 15 -16 15 -9 0 -12 -7 -6 -15z"/> <path d="M5525 4895 c6 -5 15 -5 20 0 6 6 1 10 -10 10 -11 0 -15 -4 -10 -10z"/> <path d="M5690 4895 c6 -5 15 -5 20 0 6 6 1 10 -10 10 -11 0 -15 -4 -10 -10z"/> <path d="M5820 4890 c0 -11 5 -15 10 -10 6 6 6 15 0 20 -5 6 -10 1 -10 -10z"/> <path d="M5930 4895 c6 -5 15 -5 20 0 6 6 1 10 -10 10 -11 0 -15 -4 -10 -10z"/> <path d="M5990 4895 c6 -5 15 -5 20 0 6 6 1 10 -10 10 -11 0 -15 -4 -10 -10z"/> <path d="M6635 4895 c6 -5 15 -5 20 0 6 6 1 10 -10 10 -11 0 -15 -4 -10 -10z"/> <path d="M7170 4890 c0 -11 5 -15 10 -10 6 6 6 15 0 20 -5 6 -10 1 -10 -10z"/> <path d="M7340 4895 c6 -5 15 -5 20 0 6 6 1 10 -10 10 -11 0 -15 -4 -10 -10z"/> <path d="M7535 4895 c6 -5 15 -5 20 0 6 6 1 10 -10 10 -11 0 -15 -4 -10 -10z"/> <path d="M8090 4895 c6 -5 14 -5 20 0 6 6 1 10 -10 10 -11 0 -16 -4 -10 -10z"/> <path d="M8160 4889 c0 -9 7 -12 15 -6 8 5 15 12 15 15 0 4 -7 7 -15 7 -8 0 -15 -7 -15 -16z"/> <path d="M8241 4888 c-7 -11 -4 -14 7 -7 17 11 23 24 10 24 -3 0 -11 -8 -17 -17z"/> <path d="M8483 4890 c5 -8 12 -15 16 -15 4 0 4 7 -1 15 -6 8 -13 15 -17 15 -4 0 -4 -7 2 -15z"/> <path d="M8939 4879 c-19 -24 -19 -25 4 -7 21 17 27 15 41 -7 16 -26 17 -26 13 1 -6 40 -33 46 -58 13z"/> <path d="M8940 4725 c0 -8 7 -15 16 -15 9 0 12 7 7 15 -6 8 -13 15 -16 15 -4 0 -7 -7 -7 -15z"/> <path d="M1298 4620 c5 -8 12 -15 16 -15 4 0 4 7 -1 15 -6 8 -13 15 -17 15 -4 0 -4 -7 2 -15z"/> <path d="M8976 4573 c-7 -11 -4 -14 7 -7 9 6 17 14 17 17 0 13 -13 7 -24 -10z"/> <path d="M8945 4505 c6 -5 15 -5 20 0 6 6 1 10 -10 10 -11 0 -16 -4 -10 -10z"/> <path d="M8985 4500 c0 -11 5 -15 10 -10 6 6 6 15 0 20 -5 6 -10 1 -10 -10z"/> <path d="M8985 4320 c0 -11 5 -15 10 -10 6 6 6 15 0 20 -5 6 -10 1 -10 -10z"/> <path d="M8975 4208 c0 -12 6 -18 13 -14 7 5 9 14 4 22 -12 20 -17 17 -17 -8z"/> <path d="M4305 4027 c-268 -53 -513 -101 -545 -107 -62 -10 -107 -59 -91 -100 5 -14 96 -76 203 -139 232 -137 211 -105 177 -274 -33 -161 -25 -197 46 -197 54 0 67 23 88 156 8 56 18 105 22 109 3 3 101 -52 217 -123 248 -151 261 -154 474 -113 206 40 240 66 183 144 -20 27 -24 27 -197 -4 l-176 -32 -332 196 c-182 108 -358 212 -391 231 -67 39 -64 42 82 66 54 9 235 43 402 76 168 32 317 59 333 59 16 0 198 -103 405 -228 414 -251 402 -235 208 -268 l-112 -19 -71 71 c-114 114 -434 237 -502 194 -55 -34 -33 -116 35 -130 327 -71 442 -164 442 -359 0 -328 -268 -383 -900 -182 -713 227 -1018 169 -1020 -193 -1 -274 184 -349 813 -331 341 10 417 1 448 -56 22 -42 -34 -89 -159 -133 -124 -44 -217 -125 -217 -191 0 -91 84 -111 131 -31 24 40 57 61 166 107 197 81 260 172 208 298 -56 133 -175 160 -671 149 -283 -6 -352 -3 -422 18 -143 41 -199 149 -139 264 73 142 272 135 810 -31 758 -233 1050 -152 1094 304 11 107 9 104 109 125 l49 9 0 -112 c0 -80 -8 -126 -26 -159 -24 -42 -25 -49 -3 -87 21 -38 21 -52 -1 -158 -30 -138 -25 -146 92 -146 107 0 111 5 80 141 -18 83 -20 119 -8 142 22 41 20 94 -4 130 -13 19 -20 71 -19 149 l2 119 83 17 c198 40 192 92 -23 224 -83 50 -296 181 -474 289 -177 109 -343 202 -367 206 -25 4 -264 -37 -532 -90z"/> <path d="M8960 4085 c6 -5 15 -5 20 0 6 6 1 10 -10 10 -11 0 -16 -4 -10 -10z"/> <path d="M8963 3930 c-6 -8 -3 -15 6 -15 9 0 16 7 16 15 0 8 -3 15 -7 15 -3 0 -10 -7 -15 -15z"/> <path d="M8960 3890 c6 -5 15 -5 20 0 6 6 1 10 -10 10 -11 0 -16 -4 -10 -10z"/> <path d="M8975 3740 c6 -5 15 -5 20 0 6 6 1 10 -10 10 -11 0 -16 -4 -10 -10z"/> <path d="M8963 3690 c-6 -8 1 -15 15 -15 13 0 20 7 15 15 -6 8 -12 15 -15 15 -4 0 -10 -7 -15 -15z"/> <path d="M8985 3315 c0 -11 5 -15 10 -10 6 6 6 15 0 20 -5 6 -10 1 -10 -10z"/> <path d="M8970 2940 c0 -11 5 -15 10 -10 6 6 6 15 0 20 -5 6 -10 1 -10 -10z"/> <path d="M8930 2870 c6 -5 15 -5 20 0 6 6 1 10 -10 10 -11 0 -16 -4 -10 -10z"/> <path d="M8986 2631 c1 -17 4 -21 9 -9 5 11 4 24 -1 29 -5 5 -8 -4 -8 -20z"/> <path d="M8946 2593 c-7 -11 -4 -14 7 -7 17 11 23 24 10 24 -3 0 -11 -8 -17 -17z"/> <path d="M3878 2369 c-541 -44 -713 -121 -713 -316 0 -507 268 -1056 593 -1214 120 -59 807 -64 932 -7 107 49 208 134 283 238 49 69 67 84 105 84 456 7 820 578 504 791 -185 125 -402 14 -463 -237 -88 -359 -271 -647 -472 -741 -108 -50 -710 -57 -814 -9 -150 69 -325 287 -413 513 -84 220 -137 508 -90 496 12 -3 69 -18 126 -33 507 -133 1615 -73 1800 99 133 123 -92 288 -403 297 l-105 3 0 -51 c0 -63 9 -68 175 -98 293 -54 253 -97 -138 -152 -511 -71 -1510 -4 -1448 98 20 32 473 105 650 105 103 0 138 19 138 75 0 44 -36 77 -78 73 -11 -1 -87 -8 -169 -14z m1642 -554 c127 -127 -59 -420 -316 -497 -79 -24 -81 -19 -32 101 24 57 55 151 70 209 50 198 64 214 184 216 45 1 73 -8 94 -29z"/> <path d="M8985 2295 c0 -11 5 -15 10 -10 6 6 6 15 0 20 -5 6 -10 1 -10 -10z"/> <path d="M8979 2192 c-9 -14 0 -76 13 -89 5 -5 7 16 4 47 -4 59 -5 62 -17 42z"/> <path d="M8985 1845 c0 -11 5 -15 10 -10 6 6 6 15 0 20 -5 6 -10 1 -10 -10z"/> <path d="M8986 1611 c1 -17 4 -21 9 -9 5 11 4 24 -1 29 -5 5 -8 -4 -8 -20z"/> <path d="M8985 1065 c0 -11 5 -15 10 -10 6 6 6 15 0 20 -5 6 -10 1 -10 -10z"/> <path d="M8976 523 c-7 -11 -4 -14 7 -7 17 11 23 24 10 24 -3 0 -11 -8 -17 -17z"/> </g> </svg>
