<?xml version="1.0" encoding="UTF-8"?>
<svg version="1.1" xmlns="http://www.w3.org/2000/svg" width="100" height="100">
<path d="M0 0 C8.91 0 17.82 0 27 0 C29.78003598 8.34010795 31.14335315 13.54216434 31 22 C29.35 22.66 27.7 23.32 26 24 C26.495 30.93 26.495 30.93 27 38 C31.95 37.67 36.9 37.34 42 37 C41.855625 34.89625 41.71125 32.7925 41.5625 30.625 C41.48128906 29.44164063 41.40007813 28.25828125 41.31640625 27.0390625 C41.18915064 24.08481099 41.18915064 24.08481099 40 22 C36.97065509 21.34227572 36.97065509 21.34227572 34 21 C33.79503906 19.90300781 33.59007812 18.80601563 33.37890625 17.67578125 C33.10678707 16.22135113 32.83465075 14.76692422 32.5625 13.3125 C32.42779297 12.59126953 32.29308594 11.87003906 32.15429688 11.12695312 C32.02216797 10.42119141 31.89003906 9.71542969 31.75390625 8.98828125 C31.63345947 8.34415283 31.5130127 7.70002441 31.38891602 7.03637695 C30.94043285 4.68810444 30.4688579 2.34428949 30 0 C39.9 0 49.8 0 60 0 C60.67192985 21.83772026 58.9632634 46.58157308 44.25976562 64.06982422 C40.18375008 67.55134743 35.20138476 66.61422353 30.0625 66.5625 C28.97775391 66.58634766 27.89300781 66.61019531 26.77539062 66.63476562 C18.83786894 66.62012975 18.83786894 66.62012975 14.93359375 63.73046875 C13.97646484 62.37888672 13.97646484 62.37888672 13 61 C12.46375 60.31421875 11.9275 59.6284375 11.375 58.921875 C0.19842742 41.26797058 -0.2606965 20.20397878 0 0 Z " fill="#00D69F" transform="translate(22,34)"/>
<path d="M0 0 C3.64354222 -0.28027248 6.177046 -0.44312908 9.4375 1.3125 C11.98829585 5.69986887 11.68907016 10.06166389 11 15 C8.57519123 20.45581974 4.32871912 23.52712419 -1 26 C-1.99 26 -2.98 26 -4 26 C-3.8125 23.1875 -3.8125 23.1875 -3 20 C-0.59196729 18.14766715 0.92741925 17 4 17 C4.91692961 14.24921116 5.10886083 12.64051087 5.0625 9.8125 C5.041875 8.554375 5.02125 7.29625 5 6 C3.35 5.67 1.7 5.34 0 5 C0 3.35 0 1.7 0 0 Z " fill="#00D69E" transform="translate(85,46)"/>
<path d="M0 0 C1.32 0 2.64 0 4 0 C4.2752765 5.41377116 4.42303913 8.58317532 1 13 C-0.18735584 14.29179918 -1.37487024 15.58345264 -2.5625 16.875 C-5.82630202 20.49685625 -7.10683768 23.23646765 -8 28 C-9.32 28 -10.64 28 -12 28 C-12.425864 21.82497201 -12.01956028 18.9715614 -8 14 C-7.4946875 13.44570312 -6.989375 12.89140625 -6.46875 12.3203125 C-2.81148925 8.28656902 -1.09486738 5.36485014 0 0 Z " fill="#00D69F" transform="translate(54,0)"/>
<path d="M0 0 C1.32 0 2.64 0 4 0 C4.45664608 3.65316867 4.6879474 5.87465395 2.734375 9.0703125 C1.66301686 10.4381144 0.57434826 11.79253536 -0.53125 13.1328125 C-2.22127939 15.28130731 -3.18626856 17.3960594 -4 20 C-5.32 20 -6.64 20 -8 20 C-8.72926045 14.04437299 -8.72926045 14.04437299 -6.734375 11.1875 C-5.65813134 10.01721563 -4.56939227 8.85830515 -3.46875 7.7109375 C-1.46331619 5.37482045 -0.72185215 2.9595938 0 0 Z " fill="#00D69F" transform="translate(62,10)"/>
</svg>
