<?xml version="1.0" encoding="UTF-8"?>
<svg version="1.1" xmlns="http://www.w3.org/2000/svg" width="100" height="100">
<path d="M0 0 C3.375 1.9375 3.375 1.9375 6 4 C10.22078546 5.59705396 13.60799741 4.5331317 17.83984375 3.48046875 C20.270736 2.93978205 22.51696372 2.83980411 25 3 C25 4.65 25 6.3 25 8 C18.06395336 10.17601463 11.24941622 10.81603376 4 10 C0.625 8 0.625 8 -2 6 C-8.95724764 4.9550379 -14.09107198 8.04330549 -20.1875 11.125 C-21.20674561 11.62620361 -22.22599121 12.12740723 -23.27612305 12.64379883 C-26.19168315 14.0812237 -29.09759788 15.53622082 -32 17 C-33.09103027 17.54938232 -33.09103027 17.54938232 -34.20410156 18.10986328 C-36.80452895 19.42078383 -39.402674 20.73423251 -41.98828125 22.07421875 C-44 23 -44 23 -46 23 C-43.62216643 25.75328098 -41.48801839 26.96944911 -38 28 C-32.64903835 28.34334258 -28.83980954 27.46410048 -23.875 25.5 C-19.71715368 23.86233624 -16.49161107 22.66101049 -12 23 C-11.76877441 23.72018311 -11.53754883 24.44036621 -11.29931641 25.18237305 C-9.74880891 28.54471936 -7.85035568 30.4903134 -5.2109375 33.08203125 C-4.74765045 33.54107346 -4.2843634 34.00011566 -3.80703735 34.47306824 C-2.33662664 35.92678699 -0.85609895 37.36968043 0.625 38.8125 C1.62829278 39.80073367 2.63090457 40.78965921 3.6328125 41.77929688 C6.08192792 44.19308851 8.53777212 46.59959731 11 49 C12.1614856 48.51104248 12.1614856 48.51104248 13.34643555 48.01220703 C16.07574912 46.97110536 17.91845848 46.7886107 20.8125 46.875 C21.60269531 46.89304688 22.39289063 46.91109375 23.20703125 46.9296875 C23.79871094 46.95289063 24.39039062 46.97609375 25 47 C24.67 48.65 24.34 50.3 24 52 C20.535 52.495 20.535 52.495 17 53 C16.81824219 53.62648437 16.63648437 54.25296875 16.44921875 54.8984375 C16.19785156 55.71570312 15.94648437 56.53296875 15.6875 57.375 C15.44386719 58.18710938 15.20023437 58.99921875 14.94921875 59.8359375 C14 62 14 62 11 64 C8.3125 64.125 8.3125 64.125 6 64 C5.896875 65.11375 5.79375 66.2275 5.6875 67.375 C5.460625 68.57125 5.23375 69.7675 5 71 C1.5647952 73.29013653 0.014669 73.17842973 -4 73 C-4.268125 73.94875 -4.53625 74.8975 -4.8125 75.875 C-6 79 -6 79 -9 81 C-12.1875 81.125 -12.1875 81.125 -15 81 C-15.103125 81.763125 -15.20625 82.52625 -15.3125 83.3125 C-16.08011118 86.3131619 -16.44011086 87.29340724 -19 89 C-22.93420258 90.01997845 -25.08706242 90.42603754 -28.8125 88.6875 C-31 87 -31 87 -33 85 C-35.28876507 84.42353865 -37.57889902 84.04930747 -39.90625 83.66015625 C-42 83 -42 83 -44 80 C-44 79.01 -44 78.02 -44 77 C-44.94875 76.731875 -45.8975 76.46375 -46.875 76.1875 C-50 75 -50 75 -52 72 C-52 71.01 -52 70.02 -52 69 C-53.1446875 68.9071875 -53.1446875 68.9071875 -54.3125 68.8125 C-57 68 -57 68 -58.8125 65.5625 C-60 63 -60 63 -60 61 C-60.78375 60.896875 -61.5675 60.79375 -62.375 60.6875 C-65 60 -65 60 -67 57 C-67.125 54.3125 -67.125 54.3125 -67 52 C-70.96 51.505 -70.96 51.505 -75 51 C-75 35.16 -75 19.32 -75 3 C-72.29644555 1.64822278 -70.79096171 2.53925613 -67.9987793 3.33642578 C-59.15931965 5.76666025 -50.36885064 6.49482644 -41.22738647 6.60012817 C-39.23630903 6.62440488 -37.2456399 6.67696136 -35.25512695 6.73022461 C-27.00677046 6.72235254 -21.15166443 5.29947973 -13.88964844 1.3515625 C-9.30756308 -0.79159604 -4.92788171 -0.98232897 0 0 Z M-58 48 C-60.19038423 49.37168238 -60.19038423 49.37168238 -62 51 C-61.67 52.65 -61.34 54.3 -61 56 C-58.13275314 55.42655063 -57.1385485 55.1385485 -55 53 C-55 51.68 -55 50.36 -55 49 C-55.99 48.67 -56.98 48.34 -58 48 Z M-51 56 C-53.27144074 57.85432087 -53.27144074 57.85432087 -55 60 C-54.34 61.32 -53.68 62.64 -53 64 C-50.13275314 63.42655063 -49.1385485 63.1385485 -47 61 C-47 59.68 -47 58.36 -47 57 C-48.78141747 56.13641377 -48.78141747 56.13641377 -51 56 Z M-45.1875 66 C-45.785625 66.66 -46.38375 67.32 -47 68 C-46.34 69.32 -45.68 70.64 -45 72 C-42.53199953 70.84826645 -40.95216435 69.95216435 -39 68 C-39.3185177 65.89179203 -39.3185177 65.89179203 -40 64 C-43.12498166 63.6626154 -43.12498166 63.6626154 -45.1875 66 Z M-37.125 72.75 C-37.74375 73.4925 -38.3625 74.235 -39 75 C-38.86358623 77.21858253 -38.86358623 77.21858253 -38 79 C-35.55519921 78.81171228 -35.55519921 78.81171228 -33 78 C-31.63979849 76.03241727 -31.63979849 76.03241727 -31 74 C-31.97850195 72.97895449 -32.97980427 71.9793879 -34 71 C-35.33015153 70.89404879 -35.33015153 70.89404879 -37.125 72.75 Z " fill="#00D69F" transform="translate(75,8)"/>
</svg>
