<svg xmlns="http://www.w3.org/2000/svg" xmlns:xlink="http://www.w3.org/1999/xlink" version="1.1" id="Layer_1" x="0px" y="0px" width="100%" viewBox="100 0 1600 600" enable-background="new 0 0 1024 544" xml:space="preserve">
<path fill="#00d69f" opacity="1.000000" stroke="none" d=" M464.493103,194.186066   C458.966370,191.934341 458.120514,187.727249 458.960663,182.913498   C460.276093,175.376968 461.560486,167.823273 463.275818,160.373047   C464.199280,156.362244 463.469269,153.979126 459.691010,151.822906   C448.410919,145.385422 437.365448,138.536621 426.231262,131.843643   C425.089417,131.157227 423.906158,130.519073 422.847107,129.719482   C419.790497,127.411736 417.484924,124.751816 418.355957,120.458824   C419.200226,116.297569 421.869781,114.201569 425.812897,113.417358   C438.694733,110.855392 451.580139,108.311111 464.464203,105.760170   C486.322998,101.432320 508.174103,97.065117 530.045959,92.804192   C535.594910,91.723183 541.190247,90.822296 546.800354,90.130836   C551.592834,89.540161 556.082886,90.957336 560.147949,93.435280   C593.574036,113.810593 626.966614,134.240707 660.384338,154.629684   C663.915100,156.783875 666.376465,159.488510 665.606018,163.946686   C664.782593,168.711380 661.500854,170.968506 657.050659,171.851456   C653.134277,172.628510 649.226196,173.505676 645.273071,174.020538   C642.192566,174.421768 640.933960,175.883942 640.964783,178.931702   C641.035400,185.929611 640.989441,192.929062 640.940552,199.927536   C640.927002,201.866714 641.633057,203.425781 642.784485,204.954483   C646.433044,209.798416 646.334106,214.904587 643.109314,219.822037   C641.684692,221.994461 641.497070,223.866806 642.092224,226.332962   C643.535095,232.311005 644.623596,238.374954 645.837036,244.407883   C646.817078,249.280640 645.148865,251.784805 640.125244,252.175323   C635.986023,252.497070 631.783875,252.504044 627.643799,252.193680   C622.325867,251.795013 620.711792,249.444885 621.685486,244.198532   C622.444336,240.109604 623.326050,236.043549 624.142517,231.965195   C625.143433,226.965973 626.523193,222.189316 622.975769,217.245392   C620.654053,214.009689 621.073914,209.517502 623.630798,206.388504   C626.573486,202.787292 626.846985,198.950043 626.716125,194.734024   C626.586914,190.571747 626.697571,186.402481 626.645874,182.237015   C626.629883,180.951065 626.996887,179.121109 625.441589,178.742386   C621.034119,177.669159 616.923889,179.677704 612.804504,180.724869   C610.090332,181.414810 610.326233,184.410599 610.345703,186.712067   C610.403809,193.580536 609.770203,200.384415 607.939148,206.988235   C601.803101,229.118500 586.471619,240.290710 562.200134,241.302994   C537.777527,242.321594 514.672668,236.223312 491.701447,229.175980   C472.144958,223.176254 452.965302,215.706497 432.569305,212.932083   C423.040161,211.635864 413.312561,210.927094 403.880920,214.123245   C395.772858,216.870850 390.966187,223.581436 390.421295,232.738678   C389.970154,240.320816 394.210907,246.655975 402.137604,250.206635   C410.654175,254.021515 419.795807,255.084122 428.916687,255.535553   C444.403076,256.302063 459.865173,255.022079 475.325836,254.076263   C487.809326,253.312576 500.299133,253.186447 512.642578,255.826904   C526.108337,258.707397 535.232361,268.505707 535.264648,280.167023   C535.287231,288.332672 531.642639,294.543640 525.012512,299.084198   C518.756592,303.368408 511.618286,305.701080 504.577179,308.285797   C498.453979,310.533569 492.535431,312.980255 489.893066,319.973999   C488.407532,323.906006 484.633514,325.057831 480.686188,323.968628   C476.756439,322.884216 474.513489,320.108276 474.702026,315.831787   C475.005554,308.946625 478.842957,304.019012 483.938690,299.961029   C488.824921,296.069824 494.581299,293.771149 500.452637,291.844849   C505.229065,290.277771 509.829773,288.310181 514.091003,285.708893   C519.570923,282.363586 519.339844,276.782257 513.451172,274.232788   C502.898590,269.664154 491.662964,269.961426 480.499878,270.719452   C459.384094,272.153351 438.272278,273.501526 417.137604,271.282562   C406.937531,270.211609 397.056244,267.755798 388.433441,261.963654   C367.278412,247.753357 369.544556,212.463348 392.251709,200.774902   C401.409821,196.060791 411.228821,194.992004 421.350494,195.286163   C440.881805,195.853714 459.443420,201.160873 477.858154,206.965454   C497.061920,213.018738 516.079224,219.731415 536.019714,223.029800   C546.883240,224.826782 557.824646,225.557816 568.812622,223.646469   C582.402039,221.282608 591.018494,211.144287 592.798279,196.734573   C595.528503,174.629257 584.216675,164.603806 564.775391,156.389786   C557.539856,153.332718 549.772888,152.030396 542.113220,150.436661   C536.161560,149.198318 533.786194,146.129868 534.517212,140.772385   C535.219055,135.627960 538.771606,132.917633 544.682312,133.876953   C566.668213,137.445404 587.121094,144.234161 601.790710,162.466217   C602.918396,163.867767 604.065247,164.742462 606.022034,164.359375   C614.805298,162.639862 623.604858,161.003571 632.446838,159.328110   C632.261658,156.801559 630.373901,156.406754 629.100830,155.627579   C603.669861,140.062454 578.148132,124.644623 552.784729,108.970558   C547.249878,105.550163 542.004517,107.918053 536.831055,108.870880   C509.683838,113.870834 482.601959,119.226166 455.503113,124.487518   C454.077209,124.764366 452.703583,125.310799 451.343964,125.720192   C451.432343,127.717232 453.019348,127.944313 454.052582,128.563721   C479.910828,144.065948 505.801270,159.514526 531.670532,174.998413   C534.787964,176.864334 537.887817,177.678009 541.631836,176.851456   C550.891846,174.807175 560.232178,173.126816 569.540710,171.302505   C576.290710,169.979645 580.673767,172.522552 581.570679,178.277542   C582.413086,183.682938 579.133118,187.139877 572.392822,188.339920   C563.877319,189.856003 555.334045,191.300125 546.918457,193.269501   C538.142639,195.323151 530.203857,194.141068 522.513245,189.397202   C510.180237,181.789719 497.662354,174.481583 485.207245,167.072754   C483.803040,166.237473 482.534729,165.042877 480.193604,165.024796   C477.706879,170.166306 477.723755,176.077682 476.371887,181.626373   C476.018616,183.076508 475.867493,184.575073 475.535797,186.031403   C473.909943,193.170670 472.242493,194.451096 464.493103,194.186066  z"/>
<path fill="#00d69f" opacity="1.000000" stroke="none" d=" M604.279907,317.180725   C604.469910,325.023834 599.815430,329.126099 593.978638,332.222961   C584.007690,337.513367 573.133972,340.224884 562.142334,342.060242   C531.181274,347.230133 499.941071,349.185730 468.592041,348.077118   C439.475372,347.047485 410.399445,345.149384 382.238708,336.628601   C381.164368,336.303497 379.999512,336.277588 378.463257,336.051392   C377.732056,344.726501 379.472229,352.842621 381.233887,360.915710   C386.288910,384.081299 394.313477,405.989868 408.865387,425.085327   C414.152679,432.023499 420.371643,438.020233 427.131042,443.481262   C435.215698,450.013031 444.362274,453.068909 454.868347,452.899750   C473.027649,452.607330 491.209839,452.359375 509.354065,452.956329   C523.461792,453.420471 534.433899,447.799866 544.206604,438.442535   C561.663086,421.728058 572.328125,401.038361 579.438110,378.311279   C581.569580,371.498230 583.058472,364.480957 584.758911,357.536957   C588.639526,341.689941 601.791138,331.641174 618.510864,331.811432   C634.010925,331.969269 646.470947,341.948090 649.700684,357.717133   C652.232178,370.076691 648.829895,381.650513 642.088806,391.988342   C630.111389,410.356506 612.456299,420.766968 591.627991,426.195587   C586.987061,427.405151 582.248779,428.645294 577.349731,428.350006   C574.506042,428.178619 573.260315,430.175201 571.885498,432.064667   C565.691589,440.577728 558.898193,448.513702 550.687500,455.208466   C538.917847,464.805084 525.808289,470.355743 510.353973,470.030151   C489.870026,469.598541 469.374725,470.533447 448.888062,469.499908   C435.628113,468.830902 424.524139,463.298737 414.560028,455.008453   C392.837891,436.935242 379.544739,413.401215 370.941498,386.947845   C363.994904,365.588287 360.655182,343.645447 360.568207,321.145203   C360.538971,313.581177 363.628357,308.475433 369.784637,304.678833   C378.172638,299.505951 387.567657,297.320740 397.030518,295.300995   C417.761536,290.876129 438.804474,289.060638 459.912476,287.806793   C461.398499,287.718475 462.940674,287.713257 464.388367,288.006744   C468.507385,288.841675 471.441132,292.544678 471.212738,296.661713   C470.968536,301.063843 468.621613,303.940765 464.190857,304.384796   C456.244720,305.181244 448.269714,305.699554 440.302368,306.272797   C422.840698,307.529144 405.564484,309.954529 388.648315,314.561829   C386.316162,315.196991 384.145721,316.425842 381.669495,317.477966   C404.731232,335.448700 558.114929,335.597656 582.243103,317.826691   C580.375488,315.676208 577.764038,315.109314 575.306702,314.356018   C566.051819,311.519043 556.455017,310.267029 546.997009,308.375244   C542.084290,307.392609 538.698914,303.842285 538.994507,299.720947   C539.350159,294.760864 543.220032,291.126740 548.579346,291.843628   C563.100037,293.786072 577.626404,296.044983 591.051147,302.339386   C597.288330,305.263794 603.212952,308.888733 604.279907,317.180725  M633.034790,369.588165   C634.888672,359.170410 630.572449,351.555939 621.635986,349.478699   C611.872925,347.209381 603.265808,352.349823 600.929932,362.305023   C597.395813,377.366852 593.319580,392.225983 586.754150,406.300476   C586.277100,407.323242 585.703430,408.430054 586.906921,409.693298   C593.519104,408.877747 599.494751,405.971252 605.261902,402.729462   C618.387268,395.351562 629.104614,385.811066 633.034790,369.588165  z"/>
<text x="700" y="350" font-family="Roboto" font-size="200" fill="#00d69f" font-weight="bold">universitea</text>
</svg>
